<?xml version="1.0" standalone="no"?>
<!DOCTYPE svg PUBLIC "-//W3C//DTD SVG 20010904//EN"
 "http://www.w3.org/TR/2001/REC-SVG-20010904/DTD/svg10.dtd">
<svg version="1.0" xmlns="http://www.w3.org/2000/svg"
 width="480.000000pt" height="480.000000pt" viewBox="0 0 480.000000 480.000000"
 preserveAspectRatio="xMidYMid meet">
<metadata>
Created by potrace 1.14, written by Peter Selinger 2001-2017
</metadata>
<g transform="translate(0.000000,480.000000) scale(0.100000,-0.100000)"
fill="#000000" stroke="none">
<path d="M0 2890 l0 -1911 30 16 c35 18 38 10 9 -21 -26 -28 -30 -48 -36 -191
-4 -101 -2 -112 14 -116 17 -4 17 -5 0 -6 -16 -1 -17 -17 -16 -196 1 -170 4
-195 18 -198 14 -4 14 -5 -1 -6 -10 0 -18 -9 -18 -19 0 -16 7 -18 45 -16 26 1
45 -2 45 -8 0 -6 -11 -8 -26 -4 -27 7 -64 0 -64 -13 0 -4 15 -6 33 -4 l32 3
-32 -10 c-38 -12 -45 -25 -8 -16 24 6 25 5 23 -46 l-1 -53 -7 45 -7 45 -3 -45
-3 -45 -7 45 c-4 28 -8 36 -9 20 -1 -14 -4 -38 -6 -55 -2 -16 -1 -25 3 -19 4
6 18 8 32 4 24 -6 24 -6 -7 -13 -27 -5 -32 -11 -29 -29 3 -23 5 -23 152 -23
96 0 147 4 144 10 -3 6 -17 9 -32 7 -16 -1 -28 2 -28 7 0 5 -8 12 -17 14 -17
4 -17 5 0 6 9 0 17 6 17 11 0 6 8 10 18 10 10 0 23 5 29 11 17 17 41 4 46 -23
4 -22 4 -21 6 3 1 20 8 29 34 37 30 9 29 10 -18 6 l-50 -3 54 12 c47 11 52 14
38 25 -9 8 -22 12 -29 9 -8 -3 -5 -6 7 -7 l20 -1 -20 -9 c-11 -5 -29 -9 -40
-9 -13 1 -15 3 -6 6 10 4 8 9 -10 19 l-24 14 28 -6 c22 -5 26 -3 21 10 -3 9
-2 16 4 16 6 0 12 -5 14 -12 3 -8 9 -8 24 0 17 10 17 11 2 12 -11 0 -18 8 -18
20 0 17 7 20 53 20 51 0 52 -1 63 -35 8 -25 8 -36 0 -39 -6 -2 -1 -5 12 -5 15
-1 22 5 22 17 0 10 9 25 20 35 25 21 34 22 26 1 -5 -13 -1 -14 27 -9 17 4 35
13 39 19 6 8 8 7 8 -1 0 -15 9 -16 29 -4 25 16 -2 63 -31 56 -13 -2 -39 0 -58
5 -32 9 -30 9 14 4 33 -4 46 -2 41 5 -8 13 25 27 91 37 46 7 47 8 19 14 -16 4
-43 5 -60 3 -25 -3 -26 -2 -10 6 14 6 2 8 -43 7 -43 -1 -66 -7 -72 -16 -7 -11
-10 -12 -10 -2 0 7 -5 10 -11 6 -6 -3 -15 0 -20 7 -7 11 -11 10 -23 -6 -11
-15 -11 -22 -3 -27 7 -5 0 -8 -15 -8 -16 0 -28 5 -28 10 0 6 7 10 15 10 8 0
19 9 25 19 13 26 13 34 -2 25 -7 -5 -8 -3 -3 5 5 9 13 7 31 -10 13 -12 24 -18
24 -12 0 6 10 9 23 7 20 -4 20 -4 2 5 -11 4 -23 7 -27 5 -12 -7 -20 17 -10 29
15 18 15 29 0 39 -10 8 -10 9 2 5 8 -2 15 -10 15 -17 0 -8 13 -17 29 -21 34
-9 47 -3 26 12 -16 11 -13 11 38 -7 11 -4 9 0 -6 11 -15 11 -32 15 -50 11 -18
-4 -22 -4 -13 2 11 8 11 10 0 14 -8 3 -11 9 -7 13 4 4 14 2 23 -5 8 -7 22 -10
30 -6 9 3 14 2 11 -3 -6 -10 24 -25 32 -16 3 3 0 5 -6 5 -21 0 -13 16 8 17 11
1 20 -2 20 -8 0 -5 4 -9 10 -9 5 0 9 3 7 7 -1 5 3 8 8 8 5 0 9 -4 7 -8 -1 -5
2 -6 8 -2 6 4 17 2 25 -5 9 -7 15 -8 20 0 3 5 0 10 -8 10 -8 0 -24 9 -37 20
-13 11 -21 20 -19 20 2 0 19 4 37 9 20 6 32 6 32 0 0 -5 -8 -9 -17 -9 -13 0
-14 -3 -6 -11 9 -9 18 -8 36 4 13 8 34 17 48 19 21 3 24 8 25 46 0 23 6 48 12
54 12 12 14 -2 16 -96 1 -19 8 -32 21 -37 l20 -8 -20 -1 c-18 -1 -17 -2 4 -11
13 -5 26 -7 29 -4 3 3 -1 5 -9 6 -8 0 -5 4 6 8 17 7 16 9 -12 15 -34 8 -43 21
-20 29 10 3 10 9 0 26 -7 11 -13 28 -13 36 0 23 18 18 23 -7 l4 -23 2 23 c1
23 17 30 23 10 3 -8 7 -6 10 4 5 12 -1 18 -20 24 l-27 7 30 7 c30 7 29 7 -13
15 -43 8 -44 8 -39 46 2 23 0 40 -7 43 -7 3 -7 5 2 5 6 1 12 8 12 17 0 8 -4
12 -10 9 -5 -3 -18 -1 -27 5 -15 9 -14 10 7 5 19 -5 22 -4 10 4 -22 16 -50 13
-50 -4 0 -8 -4 -15 -8 -15 -13 0 -10 30 2 30 6 1 -1 8 -16 16 -34 18 -37 44
-5 45 21 1 21 1 -3 9 -25 8 -25 8 5 10 17 1 34 2 38 1 5 -1 6 3 3 8 -4 5 -2
12 4 16 6 4 8 10 5 14 -2 5 94 8 214 9 120 1 222 2 227 3 5 1 32 1 61 0 45 -1
52 -3 47 -18 -5 -17 -5 -17 5 -1 14 20 78 18 92 -3 7 -11 9 -10 9 3 0 12 5 15
16 11 13 -5 13 -7 2 -14 -9 -6 -9 -9 -1 -9 6 0 15 4 18 10 3 5 12 10 18 10 8
0 7 -3 -2 -9 -11 -7 -8 -11 10 -17 13 -4 28 -7 32 -6 5 1 6 -2 3 -7 -4 -6 -18
-6 -36 -1 -17 5 -30 8 -31 7 0 -1 -2 -10 -4 -20 -3 -14 0 -16 10 -7 8 6 27 9
44 7 22 -4 31 -1 34 11 4 15 5 15 6 0 0 -10 6 -18 13 -18 6 0 8 -3 4 -8 -4 -4
-13 -7 -18 -7 -6 0 -12 -6 -14 -13 -1 -7 0 -8 3 -2 3 7 10 4 19 -7 8 -11 13
-13 14 -5 0 6 5 12 11 12 6 0 9 -7 5 -15 -3 -8 -1 -15 4 -15 5 0 11 8 13 17 4
14 5 12 6 -4 0 -13 5 -23 10 -23 5 0 9 -11 9 -25 0 -13 -3 -23 -7 -21 -4 3 -7
-4 -7 -15 0 -19 1 -18 17 3 14 18 20 20 32 10 26 -22 31 16 9 63 -6 11 -15 34
-22 52 -15 39 -37 49 -61 27 -18 -16 -19 -16 -21 2 0 10 -1 27 0 37 1 9 -3 17
-8 17 -6 0 -10 8 -11 18 0 10 -3 12 -6 5 -2 -7 -9 -13 -15 -13 -6 0 -8 6 -5
14 3 8 -1 17 -9 20 -9 3 -12 10 -9 16 3 5 1 10 -4 10 -6 0 -11 -6 -11 -14 0
-8 -8 -15 -17 -15 -10 1 -28 -2 -40 -6 -29 -9 -31 10 -3 27 11 7 20 16 20 19
0 16 -173 63 -200 54 -18 -6 -84 41 -76 54 3 4 0 13 -6 21 -8 13 -9 12 -5 -2
3 -9 0 -22 -8 -28 -8 -6 -11 -18 -8 -26 3 -8 3 -14 -1 -14 -12 0 -24 77 -18
115 4 22 4 72 -1 110 -5 39 -8 97 -8 130 1 61 34 210 56 255 7 14 18 57 25 95
19 102 44 169 84 221 20 26 36 51 36 55 0 5 5 9 11 9 6 0 23 12 38 27 16 16
45 43 64 61 41 36 43 43 55 159 l8 81 -26 -1 c-82 -2 -114 19 -160 106 -14 26
-28 47 -32 47 -7 0 -13 -125 -8 -160 1 -11 -3 -10 -20 5 -18 16 -23 17 -30 5
-9 -14 -15 -6 -11 14 1 5 -6 3 -15 -5 -12 -9 -15 -9 -10 -1 4 7 2 12 -4 12 -6
0 -8 5 -5 10 4 6 11 7 17 4 7 -5 8 -2 2 7 -11 19 -16 51 -6 45 4 -2 14 0 22 6
12 8 12 9 -2 4 -15 -4 -17 0 -14 27 3 27 2 29 -9 14 -7 -10 -18 -16 -25 -15
-7 2 -13 -7 -15 -19 -1 -12 1 -21 4 -19 3 2 11 -2 18 -9 10 -10 9 -14 -3 -19
-8 -3 -13 -11 -12 -17 2 -6 -10 -13 -27 -15 -24 -3 -26 -2 -10 6 20 8 19 9 -1
9 -20 1 -21 6 -19 56 2 30 -1 55 -6 55 -5 0 -7 -18 -5 -40 2 -22 0 -43 -5 -46
-8 -5 -13 19 -10 56 0 10 -1 11 -5 3 -7 -16 -31 -17 -36 -1 -3 8 -9 8 -24 -1
-18 -11 -18 -11 0 -9 10 2 21 -2 23 -8 2 -7 -6 -11 -22 -10 -14 0 -25 5 -25 9
0 5 -4 6 -8 3 -4 -2 -9 80 -10 184 -2 178 -1 189 15 184 17 -5 17 -5 0 6 -17
11 -18 30 -11 341 l6 329 -48 0 c-94 0 -213 13 -208 22 3 5 12 7 20 4 12 -4
12 -2 4 14 -8 14 -7 26 1 43 11 20 11 21 -5 8 -16 -14 -17 -7 -15 107 2 66 7
119 11 116 4 -3 4 6 -2 20 -5 15 -6 28 0 31 5 3 8 14 7 25 -1 10 -5 16 -11 13
-5 -3 -6 -1 -2 6 6 9 11 9 21 1 7 -6 21 -8 31 -4 11 3 15 2 9 -3 -5 -4 -10
-15 -10 -23 0 -8 5 -18 10 -23 6 -4 -1 -6 -14 -5 -14 2 -26 -3 -29 -12 -5 -13
-3 -13 11 -1 13 10 17 11 17 1 0 -9 5 -8 18 3 29 26 17 80 -15 75 -9 -2 -18 3
-21 11 -3 9 1 11 16 7 17 -6 21 -1 27 24 4 20 2 37 -7 48 -11 15 -11 16 3 4
15 -11 17 -9 17 15 0 16 4 90 7 166 7 129 6 137 -11 138 -11 0 -14 3 -6 6 20
8 14 20 -13 27 -14 4 -35 1 -46 -5 -15 -8 -19 -8 -15 0 11 18 -5 13 -21 -6
-13 -16 -13 -16 -3 5 6 12 8 28 4 35 -6 9 -4 9 8 0 8 -7 19 -9 23 -5 5 4 5 1
1 -6 -6 -10 -1 -11 21 -6 33 8 42 14 21 14 -9 0 -18 9 -21 19 -4 16 1 21 27
24 27 3 26 4 -9 6 -22 1 -47 6 -55 11 -11 7 -7 9 15 6 17 -2 24 -1 18 1 -7 2
-13 9 -13 15 0 5 8 7 18 4 14 -5 14 -4 -2 9 -16 12 -17 15 -4 20 19 8 17 33
-3 46 -8 5 -9 9 -4 9 6 0 6 3 0 8 -6 4 -19 20 -28 35 -14 22 -16 32 -7 42 8 9
8 20 2 32 -13 25 -8 66 9 71 11 3 11 1 -1 -7 -8 -6 -10 -11 -4 -11 18 0 24 12
14 26 -6 6 -9 18 -8 25 3 12 -66 14 -394 17 l-398 2 0 -1910z m817 1444 c-8
-8 -48 -13 -43 -6 2 4 14 8 26 9 12 1 20 0 17 -3z m-23 -36 c-3 -4 -11 -5 -19
-1 -21 7 -19 12 4 10 11 0 18 -5 15 -9z m0 -36 c2 -4 -5 -9 -17 -9 -17 -2 -19
0 -7 7 18 12 18 12 24 2z m2 -53 c0 -10 -4 -15 -8 -13 -4 3 -8 1 -8 -5 0 -5 5
-13 11 -16 5 -4 8 -12 6 -18 -2 -7 3 -21 12 -32 15 -18 15 -19 -1 -7 -9 8 -19
9 -22 4 -6 -11 22 -27 39 -23 6 2 6 -1 2 -5 -11 -11 -38 -14 -31 -3 3 5 1 9
-4 9 -13 0 -22 -39 -11 -45 4 -3 6 -12 2 -20 -3 -9 1 -15 11 -15 9 0 16 -4 16
-10 0 -5 -7 -7 -15 -4 -8 4 -15 1 -15 -5 0 -6 6 -11 13 -12 9 0 9 -2 -1 -6
-10 -4 -10 -8 0 -21 10 -12 10 -14 1 -8 -7 4 -13 2 -13 -3 0 -6 5 -11 10 -11
7 0 7 -6 0 -19 -7 -13 -7 -22 0 -26 5 -3 10 -12 10 -18 0 -8 -3 -8 -9 1 -5 9
-9 -8 -9 -45 -1 -152 -5 -221 -12 -258 -7 -36 -8 -32 -10 35 -7 234 -1 508 12
534 7 12 7 16 0 12 -6 -3 -9 5 -8 19 0 14 5 25 10 25 5 0 3 6 -4 14 -9 12 -8
15 7 13 11 0 19 -9 19 -18z m328 -1794 c-4 -17 -1 -24 13 -28 14 -4 13 -5 -6
-6 -20 -1 -23 3 -19 24 3 14 1 25 -3 25 -5 0 -9 -12 -9 -27 0 -21 -3 -24 -9
-13 -6 8 -8 17 -5 21 2 4 -4 10 -13 12 -14 4 -13 5 4 6 12 0 25 6 28 11 11 18
25 0 19 -25z m-62 -42 c-5 -59 -10 -63 -11 -10 -1 26 3 47 7 47 4 0 6 -17 4
-37z m38 -18 c0 -8 -4 -15 -10 -15 -5 0 -10 7 -10 15 0 8 5 15 10 15 6 0 10
-7 10 -15z m53 8 c-7 -2 -19 -2 -25 0 -7 3 -2 5 12 5 14 0 19 -2 13 -5z m-18
-23 c3 -5 1 -10 -4 -10 -6 0 -11 5 -11 10 0 6 2 10 4 10 3 0 8 -4 11 -10z
m323 -45 c2 -27 -2 -53 -8 -59 -9 -8 -11 3 -8 47 1 31 0 59 -5 61 -4 3 -2 3 5
2 8 -2 14 -22 16 -51z m-133 -14 c0 -27 -3 -37 -12 -34 -7 3 -13 13 -13 23 0
11 -4 22 -10 25 -5 3 -10 14 -9 23 0 14 2 13 9 -3 6 -14 9 -16 10 -5 2 8 2 20
0 25 -1 6 4 4 12 -3 7 -7 13 -30 13 -51z m-165 15 c0 -3 -4 -8 -10 -11 -5 -3
-10 -1 -10 4 0 6 5 11 10 11 6 0 10 -2 10 -4z m124 -36 c-6 -6 -10 -3 -10 10
0 13 4 16 10 10 7 -7 7 -13 0 -20z m-170 -45 c-4 -8 -8 -15 -10 -15 -2 0 -4 7
-4 15 0 8 4 15 10 15 5 0 7 -7 4 -15z m-982 -1026 c27 -14 48 -69 47 -121 0
-33 -2 -38 -9 -23 -5 11 -9 36 -9 56 -1 48 -39 86 -70 70 -26 -14 -29 3 -3 18
22 13 20 13 44 0z m-85 -146 c-16 -16 -17 -16 -17 3 0 26 11 37 24 24 7 -7 5
-16 -7 -27z m93 -9 c0 -8 -4 -12 -10 -9 -5 3 -10 10 -10 16 0 5 5 9 10 9 6 0
10 -7 10 -16z m1180 -53 c0 -5 3 -18 6 -28 4 -14 4 -15 -4 -4 -5 7 -14 11 -20
7 -6 -4 -8 2 -5 14 5 20 23 28 23 11z m-1075 -122 c5 -15 9 -18 15 -9 4 7 13
10 19 6 7 -5 9 -1 5 8 -3 9 -1 16 5 16 6 0 11 -6 11 -12 0 -10 2 -10 8 -1 9
14 452 16 452 2 0 -10 -21 -16 -82 -25 -49 -6 -61 -19 -30 -32 29 -12 25 -32
-8 -32 -16 0 -30 5 -30 10 0 6 -4 10 -10 10 -5 0 -10 -6 -10 -14 0 -15 -47
-28 -55 -16 -9 15 6 39 21 33 8 -3 14 0 14 6 0 6 -3 10 -7 10 -19 -3 -23 2
-13 20 10 21 -3 40 -15 21 -9 -15 -28 -12 -19 3 6 10 4 10 -7 0 -7 -7 -26 -13
-41 -13 -15 0 -46 -7 -67 -16 -22 -9 -46 -14 -53 -11 -8 3 -6 6 5 6 10 1 15 5
12 11 -4 6 -14 5 -28 -4 -12 -7 -32 -13 -44 -12 -14 2 -19 -2 -16 -11 4 -10 9
-11 16 -4 6 6 15 4 26 -8 9 -9 12 -11 7 -4 -5 8 -7 16 -4 18 8 8 39 -6 33 -15
-3 -4 3 -7 13 -6 12 1 16 -5 14 -23 l-2 -23 20 23 c10 13 19 18 20 12 0 -7 7
-13 16 -13 8 0 12 -5 9 -10 -5 -8 -11 -8 -20 0 -8 7 -16 7 -19 2 -6 -10 22
-27 37 -23 5 1 6 -3 2 -9 -4 -6 -15 -4 -31 6 -18 12 -24 13 -24 3 0 -8 -6 -5
-16 7 -15 19 -15 18 -11 -4 3 -12 1 -20 -4 -16 -5 3 -9 15 -10 27 -1 20 -2 20
-12 -4 -12 -26 -14 -26 -42 -14 l-30 13 33 1 c17 1 32 5 32 10 0 4 -11 6 -25
3 -14 -2 -36 3 -51 13 -15 9 -23 12 -20 6 4 -6 2 -11 -5 -11 -8 0 -8 -4 2 -16
11 -13 9 -14 -12 -9 -14 3 -37 1 -52 -4 -15 -6 -27 -7 -27 -2 0 5 10 11 23 15
13 4 18 9 12 13 -6 5 -12 31 -13 59 l-1 50 39 2 c32 2 40 -1 45 -19z m25 17
c0 -3 -4 -8 -10 -11 -5 -3 -10 -1 -10 4 0 6 5 11 10 11 6 0 10 -2 10 -4z m558
-13 c-2 -14 -20 -21 -73 -29 -52 -9 -60 -12 -32 -13 20 0 37 -5 37 -10 0 -9
-17 -8 -90 6 -34 6 -33 7 30 20 36 7 75 15 88 16 32 5 39 16 8 13 -14 -2 -26
1 -26 5 0 5 14 9 31 9 24 0 30 -4 27 -17z m-283 -13 c-3 -5 -8 -18 -10 -27 -8
-43 -25 -71 -45 -76 -17 -4 -19 -3 -9 9 6 7 9 21 5 29 -4 10 1 15 14 15 22 0
27 15 8 26 -6 4 -8 3 -5 -3 7 -11 -27 -26 -53 -24 -13 2 -13 1 0 -8 13 -9 13
-11 -2 -11 -9 0 -20 5 -23 10 -4 6 -10 8 -15 5 -4 -3 -13 2 -20 10 -10 12 -9
15 8 15 12 0 24 5 27 10 3 6 28 10 55 10 27 0 52 5 55 10 3 6 8 10 11 10 3 0
2 -4 -1 -10z m172 -69 c-1 -13 -11 -18 -41 -19 -30 -1 -36 1 -21 7 11 5 25 6
31 4 7 -2 15 0 19 6 3 6 0 9 -8 5 -8 -3 -18 -1 -21 4 -3 5 5 10 18 10 17 0 24
-6 23 -17z m-246 -14 c-10 -9 -11 -8 -5 6 3 10 9 15 12 12 3 -3 0 -11 -7 -18z
m116 -23 c-3 -3 -12 -4 -19 -1 -8 3 -5 6 6 6 11 1 17 -2 13 -5z m130 -7 c-4
-14 -45 -16 -57 -2 -6 8 1 11 26 12 20 0 33 -4 31 -10z m-72 -7 c3 -6 -1 -7
-9 -4 -18 7 -21 14 -7 14 6 0 13 -4 16 -10z m85 -34 c0 -3 -4 -8 -10 -11 -5
-3 -10 -1 -10 4 0 6 5 11 10 11 6 0 10 -2 10 -4z m100 -40 c0 -3 -4 -8 -10
-11 -5 -3 -10 -1 -10 4 0 6 5 11 10 11 6 0 10 -2 10 -4z m-196 -82 c3 -8 2
-12 -4 -9 -6 3 -10 10 -10 16 0 14 7 11 14 -7z m61 -24 c3 -5 1 -10 -4 -10 -6
0 -11 5 -11 10 0 6 2 10 4 10 3 0 8 -4 11 -10z m-85 -45 c0 -5 -5 -3 -10 5 -5
8 -10 20 -10 25 0 6 5 3 10 -5 5 -8 10 -19 10 -25z m100 15 c13 -9 13 -10 0
-10 -8 0 -22 5 -30 10 -13 9 -13 10 0 10 8 0 22 -5 30 -10z m-50 -16 c0 -2 -7
-4 -15 -4 -8 0 -15 4 -15 10 0 5 7 7 15 4 8 -4 15 -8 15 -10z m45 -14 c3 -6
-1 -7 -9 -4 -9 3 -16 2 -16 -4 0 -5 -8 -9 -17 -8 -10 0 -17 -5 -15 -11 3 -20
-6 -15 -19 8 -6 12 -7 19 -2 16 4 -2 17 -1 28 4 28 11 43 11 50 -1z m-577 -19
c-7 -11 -16 -18 -20 -15 -4 3 -2 11 5 19 18 21 29 18 15 -4z m377 -32 c0 -13
4 -29 8 -36 4 -6 3 -14 -3 -18 -5 -3 -10 1 -10 9 0 9 -4 16 -9 16 -5 0 -8 -7
-7 -16 0 -9 -6 -19 -14 -21 -13 -4 -13 -3 0 6 13 9 12 11 -5 11 l-20 1 20 11
c19 12 19 12 -5 20 -22 7 -22 7 5 4 25 -4 31 -1 31 15 0 12 -5 18 -14 14 -7
-3 -10 0 -7 6 11 17 29 4 30 -22z m-118 -27 c0 -10 -9 -18 -18 -18 -29 0 -17
22 18 35 1 1 1 -7 0 -17z m40 2 c-3 -3 -12 -4 -19 -1 -8 3 -5 6 6 6 11 1 17
-2 13 -5z m-17 -34 c-12 -8 -12 -10 5 -10 11 0 29 -8 40 -16 19 -15 18 -16
-15 -9 -35 8 -53 22 -44 37 3 4 11 8 17 8 7 0 6 -4 -3 -10z m-21 -34 c-3 -3
-11 5 -18 17 -13 21 -12 21 5 5 10 -10 16 -20 13 -22z m246 -36 c3 -5 -2 -10
-12 -10 -11 0 -23 -4 -28 -8 -6 -5 -21 -6 -35 -1 -23 7 -23 7 8 8 17 1 32 6
32 11 0 6 6 10 14 10 8 0 18 -4 21 -10z m-268 -25 c6 -14 8 -27 4 -29 -4 -3
-12 8 -18 25 -14 35 -3 39 14 4z m-29 -26 c-3 -8 -7 -3 -11 10 -4 17 -3 21 5
13 5 -5 8 -16 6 -23z m-283 2 c3 -5 1 -12 -5 -16 -5 -3 -10 1 -10 9 0 18 6 21
15 7z m445 -15 c0 -3 -4 -8 -10 -11 -5 -3 -10 -1 -10 4 0 6 5 11 10 11 6 0 10
-2 10 -4z m67 -2 c-3 -3 -12 -4 -19 -1 -8 3 -5 6 6 6 11 1 17 -2 13 -5z m-217
-14 c0 -5 -8 -10 -17 -10 -15 0 -16 2 -3 10 19 12 20 12 20 0z m277 4 c-3 -3
-12 -4 -19 -1 -8 3 -5 6 6 6 11 1 17 -2 13 -5z m-115 -46 c-9 -9 -12 -7 -12
12 0 19 3 21 12 12 9 -9 9 -15 0 -24z m105 26 c-3 -3 -12 -4 -19 -1 -8 3 -5 6
6 6 11 1 17 -2 13 -5z m-290 -24 c-1 -15 -6 -19 -22 -14 -26 8 -28 11 -20 23
12 20 44 13 42 -9z m-178 0 c-19 -11 -79 -9 -72 3 2 4 23 7 46 7 31 -1 38 -3
26 -10z m54 -16 c12 -13 -6 -34 -30 -34 -13 0 -22 4 -19 9 3 5 -14 8 -38 7
-52 -1 -50 -7 7 -22 l42 -11 -53 0 c-48 1 -53 3 -50 21 2 17 13 22 53 27 79 9
81 9 88 3z m77 -23 c-8 -5 -26 -11 -40 -15 -21 -5 -20 -3 5 9 32 15 60 20 35
6z m12 -41 c-11 -20 -24 -29 -39 -28 -12 1 -19 6 -17 10 3 4 -5 9 -18 9 -20 1
-21 2 -3 6 11 3 27 10 35 17 13 9 13 9 3 -5 -7 -9 -10 -19 -6 -22 10 -10 23
-8 23 3 0 13 22 39 32 40 4 0 -1 -13 -10 -30z m-182 -14 c0 -18 -31 -29 -44
-16 -8 8 -7 14 4 20 22 14 40 12 40 -4z m76 -4 c-5 -8 -66 -4 -66 4 0 2 16 4
36 4 19 0 33 -4 30 -8z m-13 -29 c-7 -2 -21 -2 -30 0 -10 3 -4 5 12 5 17 0 24
-2 18 -5z m-53 -12 c0 -4 -11 -6 -25 -3 -14 2 -25 6 -25 8 0 2 11 4 25 4 14 0
25 -4 25 -9z m-57 -15 c4 -10 0 -12 -14 -9 -22 6 -26 23 -5 23 8 0 16 -6 19
-14z m94 -22 c-3 -3 -12 -4 -19 -1 -8 3 -5 6 6 6 11 1 17 -2 13 -5z m80 0 c-3
-3 -12 -4 -19 -1 -8 3 -5 6 6 6 11 1 17 -2 13 -5z"/>
<path d="M330 860 c-11 -8 -7 -9 15 -4 37 8 45 14 19 14 -10 0 -26 -5 -34 -10z"/>
<path d="M195 840 c3 -5 8 -10 11 -10 2 0 4 5 4 10 0 6 -5 10 -11 10 -5 0 -7
-4 -4 -10z"/>
<path d="M231 834 c0 -11 3 -14 6 -6 3 7 2 16 -1 19 -3 4 -6 -2 -5 -13z"/>
<path d="M628 793 c7 -3 16 -2 19 1 4 3 -2 6 -13 5 -11 0 -14 -3 -6 -6z"/>
<path d="M80 89 c0 -5 5 -7 10 -4 6 3 10 8 10 11 0 2 -4 4 -10 4 -5 0 -10 -5
-10 -11z"/>
<path d="M1607 4763 c-2 -21 -5 -151 -6 -289 -2 -244 -1 -251 20 -270 20 -18
41 -19 342 -22 348 -3 407 3 513 52 158 73 245 247 257 511 l2 50 -197 3 -198
2 0 -28 c0 -97 -54 -132 -196 -127 -51 2 -101 6 -111 9 -27 9 -43 47 -43 101
l0 45 -189 0 -189 0 -5 -37z m725 -258 c-6 -14 -8 -25 -3 -25 5 0 13 -19 19
-42 12 -46 2 -71 -25 -61 -13 5 -14 21 -10 97 7 110 6 106 19 78 8 -16 8 -29
0 -47z m-312 -16 c0 -5 -6 -9 -12 -9 -10 0 -10 -2 0 -9 10 -6 9 -10 -7 -14
-23 -6 -24 -3 -15 30 6 21 34 22 34 2z m-20 -94 c0 -8 -4 -15 -10 -15 -5 0 -7
7 -4 15 4 8 8 15 10 15 2 0 4 -7 4 -15z m190 -71 c0 -8 -4 -12 -10 -9 -5 3
-10 10 -10 16 0 5 5 9 10 9 6 0 10 -7 10 -16z m25 6 c3 -5 1 -10 -4 -10 -6 0
-11 5 -11 10 0 6 2 10 4 10 3 0 8 -4 11 -10z"/>
<path d="M2939 4562 c-1 -130 -3 -259 -5 -286 -1 -29 3 -61 11 -76 17 -33 56
-40 221 -40 159 0 148 -24 152 347 l4 292 -191 1 -191 0 -1 -238z m91 -205 c0
-85 -12 -167 -25 -167 -7 0 -20 21 -28 48 -16 50 -11 117 11 159 7 12 9 30 5
40 -4 11 2 8 15 -9 15 -18 22 -40 22 -71z"/>
<path d="M3549 4643 c0 -87 -2 -175 -4 -196 -2 -23 2 -43 11 -52 18 -18 18
-54 0 -61 -10 -4 -13 -22 -12 -67 1 -50 5 -62 19 -65 13 -3 16 -9 12 -23 -5
-15 -1 -19 16 -19 18 0 20 3 11 12 -20 20 -14 28 19 26 21 -2 34 -9 40 -23 4
-11 8 -14 8 -7 1 10 11 12 40 7 25 -4 47 -2 58 5 16 10 16 11 -3 7 -17 -4 -20
-1 -17 14 3 11 13 19 22 19 14 0 14 -2 1 -11 -12 -9 -11 -10 8 -6 17 4 22 1
22 -14 0 -14 7 -19 25 -19 14 0 25 6 26 13 0 6 4 2 9 -11 8 -19 13 -21 30 -12
28 15 42 46 39 88 -3 46 -15 72 -34 72 -8 0 -15 4 -15 10 0 6 -9 6 -25 0 -27
-10 -27 -10 -29 54 -1 29 -26 51 -26 23 0 -9 -9 -19 -21 -22 -21 -7 -21 -7 -1
-21 22 -15 23 -34 3 -58 -10 -12 -16 -13 -26 -3 -11 10 -10 13 4 19 13 6 12 8
-6 14 -18 5 -23 14 -24 43 0 20 -2 47 -4 61 -2 14 -4 78 -6 143 -2 88 -5 117
-15 117 -8 0 -11 6 -7 16 4 11 -1 22 -13 31 -10 8 -18 16 -16 18 1 3 2 12 2
20 0 12 -13 15 -60 15 l-60 0 -1 -157z m31 -14 c0 -17 -4 -28 -10 -24 -5 3
-10 17 -10 31 0 13 5 24 10 24 6 0 10 -14 10 -31z"/>
<path d="M3907 4753 c-4 -38 -2 -52 13 -67 18 -19 19 -17 18 48 -2 79 -22 92
-31 19z"/>
<path d="M4094 4768 c3 -18 21 -80 40 -138 19 -58 51 -159 71 -225 20 -66 44
-142 52 -169 23 -73 41 -86 121 -87 106 -2 242 0 297 5 61 5 74 21 80 102 10
120 13 498 4 521 l-9 23 -331 0 -331 0 6 -32z m656 -88 c0 -11 -4 -20 -9 -20
-5 0 -7 9 -4 20 3 11 7 20 9 20 2 0 4 -9 4 -20z m-360 -176 c0 -8 5 -14 11
-14 6 0 9 -6 6 -14 -3 -7 -1 -19 4 -25 5 -6 6 -9 3 -7 -3 3 -17 1 -30 -5 -38
-14 -64 8 -64 54 0 21 5 48 11 60 12 21 12 21 35 -7 13 -15 24 -34 24 -42z
m87 -33 c-1 -11 -6 -17 -14 -14 -10 4 -11 9 -2 19 15 19 18 18 16 -5z m-167
-16 c0 -8 -4 -15 -10 -15 -5 0 -10 7 -10 15 0 8 5 15 10 15 6 0 10 -7 10 -15z"/>
<path d="M3811 4764 c0 -11 3 -14 6 -6 3 7 2 16 -1 19 -3 4 -6 -2 -5 -13z"/>
<path d="M3807 4694 c-6 -36 -1 -64 12 -64 4 0 8 6 9 13 1 6 4 29 6 50 6 49
-19 51 -27 1z"/>
<path d="M3730 4710 c8 -5 20 -10 25 -10 6 0 3 5 -5 10 -8 5 -19 10 -25 10 -5
0 -3 -5 5 -10z"/>
<path d="M780 4700 c0 -6 7 -10 15 -10 8 0 15 2 15 4 0 2 -7 6 -15 10 -8 3
-15 1 -15 -4z"/>
<path d="M3811 4484 c0 -11 3 -14 6 -6 3 7 2 16 -1 19 -3 4 -6 -2 -5 -13z"/>
<path d="M3923 4445 c0 -27 2 -38 4 -22 2 15 2 37 0 50 -2 12 -4 0 -4 -28z"/>
<path d="M840 4410 c0 -5 5 -10 10 -10 6 0 10 5 10 10 0 6 -4 10 -10 10 -5 0
-10 -4 -10 -10z"/>
<path d="M3915 4370 c-3 -5 -1 -10 4 -10 6 0 11 5 11 10 0 6 -2 10 -4 10 -3 0
-8 -4 -11 -10z"/>
<path d="M815 3889 c4 -5 1 -17 -7 -26 -12 -15 -11 -15 10 -2 26 16 28 25 6
33 -9 3 -12 2 -9 -5z"/>
<path d="M4432 3874 c3 -17 21 -21 26 -6 1 5 -4 12 -13 16 -11 4 -15 1 -13
-10z"/>
<path d="M1200 3825 c0 -8 7 -15 15 -15 8 0 15 7 15 15 0 8 -7 15 -15 15 -8 0
-15 -7 -15 -15z"/>
<path d="M4765 3826 c-18 -13 -18 -14 8 -9 15 3 27 9 27 14 0 13 -13 11 -35
-5z"/>
<path d="M830 3815 c0 -5 5 -17 10 -25 5 -8 10 -10 10 -5 0 6 -5 17 -10 25 -5
8 -10 11 -10 5z"/>
<path d="M806 3772 c-8 -35 -4 -145 5 -131 4 8 8 7 11 -2 8 -21 20 -4 24 31 2
18 6 35 9 40 3 5 0 21 -6 37 -10 27 -11 28 -26 8 -14 -19 -15 -18 -8 13 4 17
4 32 2 32 -3 0 -8 -12 -11 -28z m25 -76 c-7 -17 -7 -26 -1 -26 6 0 10 -4 10
-10 0 -5 -4 -10 -9 -10 -17 0 -22 38 -9 59 16 27 21 20 9 -13z"/>
<path d="M4701 3791 c-10 -7 -14 -34 -15 -102 -1 -52 -5 -97 -11 -101 -6 -5
-3 -8 6 -8 9 0 20 -7 23 -16 8 -21 8 -24 -4 -24 -5 0 -10 7 -10 15 0 8 -4 15
-10 15 -6 0 -6 -9 0 -25 7 -19 6 -23 -5 -18 -8 3 -13 9 -10 13 7 12 -13 23
-26 14 -8 -4 -7 -9 2 -15 8 -5 9 -9 3 -9 -6 0 -9 -10 -7 -22 4 -25 -1 -34 -34
-61 -21 -18 -21 -18 -16 2 3 12 12 21 19 21 8 0 14 5 14 10 0 6 -7 10 -15 10
-8 0 -15 5 -15 10 0 6 6 10 13 10 7 0 14 10 14 22 1 13 9 28 17 34 9 6 13 14
9 17 -3 4 -1 7 6 7 7 0 9 5 6 10 -4 6 -10 8 -15 5 -5 -3 -14 3 -19 14 -8 14
-8 21 2 24 7 3 4 6 -7 6 -12 1 -16 6 -12 16 3 8 2 14 -2 14 -29 -5 -34 2 -17
21 22 25 13 26 -15 3 -19 -17 -29 -40 -12 -29 4 2 14 1 22 -5 12 -7 11 -9 -5
-10 -11 -1 -24 -1 -28 0 -5 1 -6 -9 -2 -21 5 -18 4 -20 -4 -8 -9 12 -13 12
-19 2 -5 -7 -13 -12 -18 -11 -23 4 -33 -2 -27 -18 5 -15 3 -14 -10 2 -15 19
-15 19 -36 0 -13 -11 -19 -25 -16 -34 5 -13 4 -13 -6 -4 -10 10 -16 8 -30 -8
-10 -11 -21 -21 -26 -21 -4 0 -30 -15 -58 -32 l-50 -33 -152 3 -153 2 0 -69
c0 -37 5 -71 11 -74 14 -9 20 -2 22 24 1 11 5 21 10 21 5 0 7 -7 3 -15 -7 -20
1 -19 54 10 144 79 222 105 246 81 12 -13 11 -15 -8 -19 -22 -4 -22 -4 2 -6
14 -1 33 -13 44 -28 16 -21 17 -29 7 -45 -7 -11 -9 -18 -4 -15 4 3 16 -6 26
-19 17 -23 17 -23 0 -17 -16 6 -17 5 -3 -12 14 -17 14 -18 -10 -5 -24 13 -24
12 -10 -5 14 -17 13 -18 -2 -12 -12 4 -18 1 -18 -9 0 -8 -8 -18 -17 -21 -24
-9 -52 -40 -45 -49 4 -4 1 -4 -5 0 -7 4 -22 -2 -35 -13 -12 -12 -28 -21 -35
-21 -7 0 -13 -7 -13 -15 0 -8 -4 -15 -9 -15 -5 0 -16 -16 -25 -35 -9 -19 -25
-35 -34 -36 -10 0 -12 -3 -4 -6 6 -2 12 -12 12 -21 0 -13 -2 -14 -9 -4 -5 9
-10 0 -15 -27 -6 -43 -21 -54 -30 -23 -4 14 -5 14 -4 -3 1 -38 -2 -45 -18 -45
-13 0 -14 3 -5 14 7 8 8 17 3 20 -9 5 -42 -28 -42 -43 0 -5 -7 -11 -15 -15 -8
-3 -15 -12 -15 -21 0 -8 -12 -20 -26 -25 -18 -7 -24 -15 -20 -26 3 -9 6 -31 6
-50 0 -31 3 -35 20 -29 15 5 20 2 20 -13 0 -25 -27 -37 -33 -14 -4 14 -5 13
-6 -3 -1 -13 -4 -16 -9 -8 -11 18 -52 5 -45 -15 4 -10 2 -13 -5 -8 -7 4 -12 2
-12 -3 0 -6 -16 -11 -36 -11 -44 0 -75 -16 -68 -34 3 -8 1 -17 -5 -21 -10 -5
-13 1 -10 21 0 4 -5 10 -11 14 -9 5 -6 10 9 15 11 3 21 12 21 20 0 14 57 38
71 29 5 -3 9 0 9 5 0 6 17 11 38 12 30 0 33 2 17 9 l-20 9 20 1 20 1 -20 9
c-11 5 -15 9 -8 9 6 1 9 10 6 21 -3 11 0 20 6 20 6 0 10 12 10 28 -1 16 -3 20
-6 10 -2 -10 -10 -18 -18 -18 -7 0 -15 -7 -19 -15 -3 -8 -17 -15 -31 -15 -17
0 -24 -4 -19 -12 5 -7 0 -9 -14 -6 -13 4 -23 0 -26 -9 -4 -9 -2 -12 7 -7 9 6
9 5 0 -8 -7 -8 -10 -18 -6 -21 3 -4 1 -7 -6 -7 -7 0 -9 -5 -5 -12 5 -9 2 -9
-9 1 -14 11 -20 11 -34 0 -9 -8 -18 -13 -20 -11 -11 8 -21 -1 -16 -15 4 -10 2
-14 -4 -10 -7 5 -9 0 -6 -12 3 -13 -2 -21 -15 -25 -28 -9 -51 3 -58 30 -3 13
-10 24 -15 24 -5 0 -6 6 -3 14 4 11 -1 14 -23 11 -15 -2 -29 -4 -30 -6 -2 -1
-9 -2 -15 -3 -9 -1 -13 -18 -12 -49 0 -33 -4 -47 -13 -47 -8 0 -12 -4 -8 -10
3 -5 12 -7 20 -3 9 3 15 -1 15 -10 0 -8 9 -36 19 -60 l20 -46 -34 -25 c-47
-36 -74 -35 -40 1 26 29 32 57 14 69 -6 3 -8 17 -5 30 l6 24 -25 -22 c-14 -12
-35 -23 -48 -23 -24 -2 -61 18 -50 28 3 4 -9 13 -28 21 -25 11 -29 16 -14 16
15 1 17 3 5 8 -31 14 -31 90 0 104 11 5 9 7 -8 7 -15 1 -26 -7 -32 -21 -7 -18
-9 -10 -8 32 1 31 3 41 5 24 3 -27 7 -31 26 -26 20 5 20 6 1 13 -17 7 -16 8 6
8 18 1 21 4 11 10 -7 5 -10 14 -7 20 4 6 4 10 -1 9 -4 -2 -8 2 -8 7 0 6 5 9
13 7 8 -2 12 4 10 14 -2 10 4 18 15 19 9 2 15 -1 11 -6 -7 -11 7 -11 25 0 19
12 -5 26 -39 23 -23 -2 -23 -1 -7 9 11 6 26 12 35 13 10 2 18 13 20 24 4 25 3
25 37 12 14 -5 24 -6 21 -1 -3 5 0 11 7 14 19 7 60 96 68 150 5 27 14 56 20
64 16 19 90 54 118 56 13 1 20 6 17 14 -3 7 1 10 9 7 8 -3 35 2 60 11 l45 18
0 107 0 108 -35 0 c-33 0 -41 -9 -36 -41 2 -13 -64 -4 -78 10 -9 10 -9 13 1
13 9 0 9 3 -2 10 -8 5 -115 9 -237 10 l-222 0 -1 -282 c0 -211 -4 -284 -13
-290 -7 -5 -8 -8 -1 -8 6 0 11 -13 11 -30 0 -16 -4 -30 -8 -30 -10 0 -6 -121
4 -137 4 -6 3 -14 -3 -18 -5 -3 -10 -31 -10 -61 0 -30 -4 -54 -8 -54 -5 0 -9
139 -10 309 0 169 -2 312 -3 317 -1 5 0 11 1 14 6 16 6 52 -1 56 -5 2 -5 15 0
27 8 24 6 135 -3 144 -3 3 -1 14 5 24 9 17 6 19 -31 19 -39 0 -41 -2 -39 -27
4 -57 -1 -566 -6 -561 -3 3 -5 136 -5 296 0 160 -4 293 -8 295 -4 2 -18 1 -32
-4 -17 -5 -19 -7 -7 -8 17 -1 18 -13 16 -176 -1 -102 -6 -175 -12 -175 -5 0
-6 -12 -3 -27 17 -71 18 -113 3 -113 -8 0 -18 -7 -21 -16 -4 -11 -2 -15 8 -11
8 3 16 0 19 -6 7 -19 -3 -37 -21 -38 -14 0 -13 -2 3 -9 18 -8 18 -9 2 -9 -10
-1 -15 -5 -12 -11 3 -6 -1 -7 -9 -4 -9 3 -16 1 -16 -5 0 -6 10 -12 23 -12 15
-1 10 -4 -13 -9 -28 -6 -30 -8 -10 -9 14 -1 32 -6 40 -12 11 -8 6 -9 -20 -4
-26 5 -31 4 -20 -4 10 -7 11 -11 3 -11 -21 0 -15 -20 10 -29 16 -7 8 -9 -33
-8 -46 2 -55 -1 -52 -14 1 -9 -5 -23 -15 -30 -11 -9 -14 -10 -9 -2 4 7 3 21
-3 30 -8 15 -10 14 -7 -7 1 -14 5 -30 9 -36 3 -6 6 -23 6 -40 2 -59 7 -99 14
-111 9 -14 6 -14 -53 -17 -28 -1 -34 -5 -32 -20 2 -11 -1 -15 -7 -11 -7 3 -11
-2 -11 -14 0 -12 5 -21 11 -21 5 0 8 4 5 8 -2 4 4 19 15 32 18 24 20 24 33 7
12 -15 14 -16 20 -2 3 8 11 15 18 15 9 0 9 -3 -2 -10 -13 -9 -13 -11 0 -20 13
-8 13 -10 1 -10 -11 0 -9 -4 4 -14 11 -8 23 -12 27 -10 4 3 5 -2 2 -10 -8 -21
-17 -20 -32 4 -7 12 -18 18 -24 14 -7 -5 -8 -2 -3 7 5 8 5 11 0 7 -4 -4 -17
-3 -28 3 -15 9 -18 8 -12 -2 5 -7 4 -10 -3 -6 -6 5 -8 0 -5 -12 3 -13 -2 -24
-15 -32 -20 -12 -20 -13 2 -30 11 -9 17 -21 13 -26 -5 -4 -15 1 -24 12 -15 20
-15 20 -8 -3 5 -19 3 -22 -16 -20 -14 2 -24 -3 -26 -13 -3 -12 4 -14 33 -11
30 4 36 2 31 -11 -3 -8 -3 -18 1 -21 11 -12 11 -37 -1 -33 -7 2 -12 9 -12 15
0 20 -14 24 -33 10 -18 -12 -18 -17 -7 -37 8 -16 15 -20 19 -12 4 7 3 18 -3
25 -6 7 -8 16 -4 19 11 12 19 8 20 -10 1 -10 4 -31 7 -47 4 -22 2 -26 -6 -18
-14 14 -32 16 -23 3 3 -5 1 -12 -4 -16 -6 -3 -8 3 -6 15 4 22 -5 26 -23 8 -6
-6 -42 -11 -87 -11 -41 1 -75 -3 -75 -8 0 -5 5 -9 10 -9 6 0 10 -9 10 -20 0
-11 -4 -20 -10 -20 -5 0 -10 -6 -10 -14 0 -19 -26 -40 -34 -27 -4 5 -2 12 3
15 5 4 5 22 -1 46 -8 29 -16 40 -29 40 -11 0 -19 -5 -19 -11 0 -5 -5 -7 -10
-4 -14 8 -13 26 1 23 6 -2 14 3 16 10 4 11 1 12 -15 3 -10 -6 -22 -7 -26 -3
-4 3 -4 -1 0 -11 3 -10 1 -17 -6 -17 -6 0 -9 4 -6 9 3 5 -1 11 -9 15 -8 3 -15
0 -15 -7 0 -8 -3 -8 -9 2 -5 8 -14 10 -21 6 -9 -6 -11 -4 -6 4 5 7 14 10 21 7
7 -2 21 4 31 15 9 10 12 19 6 19 -6 0 -14 -5 -17 -10 -4 -6 -11 -8 -16 -4 -5
3 -7 9 -4 14 6 10 -14 24 -35 25 -9 0 -14 7 -12 19 2 11 -1 15 -7 11 -20 -12
-11 12 12 31 12 10 16 12 10 4 -18 -20 -16 -35 2 -20 13 11 14 10 9 -5 -5 -11
-3 -16 2 -12 6 3 16 1 24 -5 12 -8 12 -9 -2 -4 -10 3 -18 2 -18 -3 0 -13 23
-27 40 -25 39 4 43 7 20 13 -25 7 -24 8 8 15 17 4 32 12 32 17 0 6 -6 7 -12 3
-9 -5 -9 -2 1 9 7 9 19 17 25 17 6 0 4 -5 -4 -10 -9 -6 -10 -10 -3 -10 7 0 17
9 23 20 8 15 8 18 -3 14 -8 -3 -14 2 -14 11 0 9 5 14 12 11 7 -2 10 6 7 27 -4
24 -2 29 10 24 13 -5 14 0 6 33 -8 31 -7 43 6 62 9 12 16 17 16 11 0 -7 -4
-15 -10 -18 -13 -8 -13 -45 0 -45 6 0 10 10 11 23 1 21 1 21 8 -3 7 -23 8 -22
15 14 4 22 3 42 -2 45 -13 9 -22 51 -11 51 5 0 14 -10 19 -22 8 -22 9 -22 9 5
1 21 6 27 24 26 12 0 16 -3 10 -6 -7 -2 -13 -16 -13 -29 0 -13 -4 -24 -10 -24
-5 0 -10 -9 -10 -20 0 -25 19 -27 21 -2 1 9 5 -1 9 -23 5 -29 8 -33 9 -14 1
30 31 63 31 36 0 -19 34 -40 45 -29 4 4 4 -4 0 -18 -7 -22 -6 -23 9 -11 18 15
22 51 6 51 -5 0 -10 7 -10 15 0 8 5 15 10 15 15 0 12 28 -4 37 -8 4 -16 19
-18 33 -1 14 -10 25 -18 25 -8 0 -17 -11 -21 -25 l-6 -25 -7 25 c-4 14 -5 34
-4 45 2 11 -1 21 -5 22 -5 1 -14 8 -20 16 -14 17 -57 29 -57 16 0 -5 11 -9 25
-9 18 0 23 -4 19 -15 -4 -8 -10 -15 -16 -15 -5 0 -6 5 -2 12 5 8 2 9 -9 5 -17
-6 -21 1 -31 67 -6 33 -13 43 -23 32 -4 -4 -1 -11 7 -16 13 -9 13 -10 0 -10
-13 0 -13 -1 0 -10 8 -5 10 -10 4 -10 -5 0 -19 7 -30 15 -12 9 -13 13 -4 10
11 -4 16 1 16 15 0 11 -5 20 -10 20 -5 0 -6 3 -3 6 11 11 55 -25 60 -48 4 -20
4 -19 6 5 0 15 -4 27 -9 27 -6 0 -9 6 -8 13 2 7 -5 11 -15 9 -9 -2 -20 4 -23
13 -3 8 -18 15 -33 16 l-26 1 25 8 c23 7 23 8 -10 10 l-35 2 30 8 c30 8 29 8
-10 10 -22 2 -52 4 -67 4 -15 1 -33 10 -41 21 -13 17 -17 18 -33 5 -16 -14
-17 -13 -11 3 3 9 3 17 -1 17 -15 0 -16 48 -11 296 3 134 2 161 -10 156 -10
-4 -9 2 4 21 17 27 17 27 -8 27 -23 0 -24 -3 -24 -57 1 -211 -6 -445 -13 -428
-4 11 -5 125 -2 253 4 195 3 232 -9 232 -11 0 -14 -29 -13 -160 1 -110 -2
-160 -10 -160 -6 0 -4 -5 4 -10 9 -6 10 -10 3 -10 -7 0 -10 -9 -8 -21 11 -54
-1 -188 -17 -205 -9 -9 -19 178 -20 379 l-2 187 -48 0 -48 0 -1 -92 c-1 -51 0
-104 1 -117 1 -15 -2 -21 -9 -16 -6 3 -9 10 -7 14 3 4 1 13 -4 21 -6 11 -9 4
-7 -20 2 -29 -1 -35 -18 -35 -14 0 -20 -7 -21 -22 -1 -12 2 -20 7 -17 4 2 6
11 2 19 -3 11 -1 13 10 9 8 -3 18 -1 22 5 7 13 25 15 25 3 0 -5 -10 -14 -22
-21 l-23 -11 23 6 c19 5 23 2 20 -13 -2 -10 -14 -24 -28 -31 l-25 -13 26 5
c25 5 26 4 24 -34 -1 -22 2 -40 7 -40 5 0 7 -4 4 -9 -4 -5 -2 -11 4 -13 5 -1
-24 -3 -65 -3 -69 0 -75 2 -80 23 -3 12 -10 22 -16 22 -12 0 -2 -42 12 -50 5
-3 4 -23 -2 -44 -7 -26 -7 -41 1 -50 6 -8 8 -30 6 -50 -2 -20 0 -36 4 -36 5 0
7 -6 5 -12 -2 -7 -7 -26 -9 -41 -6 -37 -21 -54 -63 -74 -19 -8 -48 -36 -65
-61 -39 -56 -46 -121 -25 -207 16 -65 18 -81 18 -134 0 -67 52 -129 118 -141
25 -4 45 -3 52 4 10 8 10 7 0 -6 -7 -9 -10 -22 -6 -27 3 -6 0 -8 -8 -5 -10 4
-13 -3 -9 -26 4 -30 -11 -42 -22 -17 -3 6 -3 2 0 -11 3 -13 1 -29 -5 -35 -6
-8 -6 -18 -1 -27 7 -10 10 -11 10 -2 0 6 5 12 11 12 6 0 9 -7 6 -14 -4 -11 -1
-13 11 -10 15 5 15 4 -1 -6 -9 -6 -21 -9 -26 -6 -5 3 -14 -1 -21 -9 -11 -13
-10 -14 4 -9 11 4 15 2 11 -8 -4 -9 2 -14 14 -15 11 -1 18 3 16 10 -3 7 4 22
15 35 19 23 20 23 56 6 20 -9 41 -28 46 -40 6 -13 19 -26 30 -29 16 -6 22 -17
19 -37 0 -5 4 -8 10 -8 8 0 7 -5 -1 -15 -10 -12 -10 -20 -1 -38 7 -12 18 -45
25 -72 9 -36 18 -51 32 -53 14 -2 16 -1 6 6 -8 5 -12 17 -10 27 2 12 14 -4 34
-44 17 -33 27 -61 22 -61 -6 0 -7 -11 -4 -26 5 -17 3 -23 -4 -19 -17 11 9 -48
28 -63 15 -11 15 -14 2 -22 -13 -8 -12 -10 3 -10 20 0 22 -11 5 -29 -11 -11
-10 -12 2 -6 12 7 13 6 4 -6 -29 -39 -16 -182 23 -249 33 -55 114 -160 124
-160 4 0 10 -9 14 -20 3 -11 18 -25 33 -32 29 -14 124 -127 117 -138 -3 -4 4
-10 15 -13 11 -3 18 -1 14 4 -8 13 9 11 31 -5 11 -7 37 -16 58 -20 20 -4 37
-12 37 -18 0 -6 16 -28 35 -50 28 -30 37 -35 41 -23 6 14 8 14 19 -2 6 -10 15
-27 19 -38 6 -16 5 -18 -5 -8 -14 14 -30 17 -27 6 0 -5 -2 -16 -7 -26 -4 -9
-5 -29 -3 -42 8 -39 -17 -30 -36 13 -10 21 -19 50 -20 65 -2 14 -15 42 -30 62
-15 19 -23 35 -19 35 4 0 1 5 -7 10 -8 5 -24 9 -35 9 l-20 0 20 -9 c14 -6 15
-9 5 -10 -12 0 -11 -3 3 -11 9 -5 17 -15 17 -22 0 -7 9 -18 20 -25 14 -9 20
-23 20 -51 0 -22 5 -43 10 -46 13 -8 13 -55 0 -55 -5 0 -10 -6 -10 -13 0 -29
-26 -50 -53 -43 -25 6 -27 11 -27 59 -1 71 -16 134 -40 160 -24 25 -27 6 -4
-28 17 -26 11 -105 -7 -105 -6 0 -15 -13 -20 -30 -13 -35 -40 -40 -61 -9 -12
20 -15 20 -27 5 -12 -14 -12 -16 0 -11 8 3 21 -7 31 -25 10 -17 23 -32 30 -34
7 -2 39 -11 71 -21 65 -21 125 -27 133 -14 8 14 24 11 20 -3 -1 -7 -1 -10 1
-5 3 4 13 7 24 7 10 0 19 6 19 14 0 8 15 16 38 20 59 11 72 16 72 31 0 8 4 16
9 19 5 4 7 -2 4 -13 -4 -17 -1 -18 46 -8 36 7 51 14 51 26 0 14 2 14 11 1 7
-11 12 -12 15 -3 3 7 12 9 20 6 11 -4 14 9 14 70 l0 76 -35 7 c-20 3 -32 10
-28 17 3 5 -3 17 -13 25 -18 13 -18 14 6 7 14 -3 20 -3 15 2 -15 12 -11 39 5
35 7 -2 24 -1 37 3 l24 6 -7 147 c-5 120 -4 149 7 158 29 23 95 37 186 38 51
0 93 4 93 9 0 4 5 7 11 7 5 0 8 -4 5 -8 -3 -5 29 -14 71 -20 104 -17 161 -43
168 -79 12 -53 18 -58 74 -55 50 3 54 2 91 -38 39 -42 50 -74 50 -140 l0 -38
48 -4 c26 -3 103 -6 172 -7 69 -1 129 -6 134 -11 5 -5 16 -6 25 -3 9 4 13 2 8
-2 -4 -5 -24 -9 -45 -10 -20 0 -47 -6 -58 -12 -12 -7 -24 -10 -27 -6 -4 3 -14
0 -24 -8 -15 -12 -16 -12 -8 1 6 12 5 13 -5 3 -9 -9 -19 -9 -33 -2 -12 7 -17
7 -13 1 3 -5 -1 -13 -10 -16 -9 -4 -13 -2 -8 5 4 8 1 8 -12 2 -11 -5 -37 -11
-59 -12 -22 -2 -43 -8 -46 -13 -4 -7 -12 -2 -20 11 -8 11 -18 21 -23 21 -6 0
-5 -5 2 -12 17 -17 15 -33 -2 -19 -11 9 -15 8 -20 -4 -3 -9 -10 -14 -15 -11
-5 3 -27 -11 -49 -32 -23 -20 -65 -54 -96 -75 -39 -27 -56 -46 -61 -67 -4 -17
-11 -28 -16 -25 -5 4 -6 -1 -3 -9 4 -11 -6 -22 -30 -37 -20 -11 -36 -22 -36
-24 0 -9 93 5 106 16 9 7 40 13 71 13 32 0 47 3 36 7 -14 6 -11 8 12 8 17 1
41 4 54 8 17 4 22 3 17 -5 -4 -7 8 -3 27 8 21 12 41 18 52 13 13 -5 16 -3 10
6 -5 10 -2 11 13 7 11 -4 37 0 58 9 54 21 226 55 299 58 17 1 33 6 36 11 10
13 72 14 88 2 11 -8 13 -8 7 2 -5 8 -1 12 12 12 11 0 25 7 32 15 14 17 35 21
24 4 -4 -8 -1 -8 14 0 12 6 27 10 34 9 7 -2 13 4 12 12 -1 9 9 15 25 16 14 1
46 11 70 22 25 12 56 23 70 23 l26 2 -25 4 -24 5 24 15 c14 8 17 12 8 9 -9 -2
-26 4 -39 15 l-22 19 66 0 67 0 0 1356 c0 1352 0 1356 -20 1351 -11 -3 -18 -1
-14 4 3 5 11 9 18 9 7 0 13 15 14 36 2 29 0 35 -12 31 -11 -4 -14 2 -14 24 1
18 6 28 12 26 20 -8 15 54 -5 74 -11 11 -19 27 -19 37 0 34 -30 51 -59 33z
m-260 -208 c6 -34 5 -52 -3 -47 -4 3 -6 10 -2 15 3 5 0 16 -6 24 -9 11 -9 15
-1 15 6 0 12 -3 12 -7z m-21 -49 c0 -8 -19 -13 -24 -6 -3 5 1 9 9 9 8 0 15 -2
15 -3z m250 -24 c0 -5 -2 -10 -4 -10 -3 0 -8 5 -11 10 -3 6 -1 10 4 10 6 0 11
-4 11 -10z m-341 -42 c10 -26 6 -38 -12 -38 -9 0 -8 3 1 8 9 6 5 12 -13 22
-30 16 -32 30 -5 30 12 0 24 -9 29 -22z m-2204 -5 c-2 -10 -4 -100 -4 -200 -1
-101 -5 -183 -9 -183 -4 0 -7 19 -6 43 2 23 3 113 3 200 1 87 5 157 10 157 5
0 8 -8 6 -17z m1090 -138 c0 -74 -3 -135 -7 -135 -5 0 -8 64 -8 142 0 78 3
138 7 134 4 -3 7 -67 8 -141z m775 125 c-13 -9 -13 -11 0 -20 13 -8 12 -10 -2
-10 -11 0 -18 8 -18 20 0 12 7 20 18 20 14 0 15 -2 2 -10z m375 -20 c3 -5 1
-10 -4 -10 -6 0 -11 5 -11 10 0 6 2 10 4 10 3 0 8 -4 11 -10z m-743 -32 c-9
-9 -12 -7 -12 12 0 19 3 21 12 12 9 -9 9 -15 0 -24z m-108 -11 c4 -19 3 -26
-4 -22 -5 3 -10 18 -10 32 0 32 5 28 14 -10z m146 13 c0 -5 -2 -10 -4 -10 -3
0 -8 5 -11 10 -3 6 -1 10 4 10 6 0 11 -4 11 -10z m-210 -26 c0 -10 6 -14 15
-10 19 7 19 -22 0 -48 -11 -14 -12 -24 -3 -40 8 -17 8 -19 -2 -9 -7 7 -27 9
-49 5 -34 -5 -35 -5 -18 12 11 12 15 26 11 42 -5 20 -2 26 15 31 13 3 20 11
17 19 -3 8 -1 14 4 14 6 0 10 -7 10 -16z m222 -21 c9 -11 8 -17 -5 -29 -9 -8
-12 -9 -7 -2 14 16 13 31 -2 22 -7 -4 -8 -3 -4 4 10 17 -9 15 -24 -3 -14 -16
-30 -11 -30 10 0 18 56 17 72 -2z m-32 -33 c0 -5 -5 -10 -11 -10 -5 0 -7 5 -4
10 3 6 8 10 11 10 2 0 4 -4 4 -10z m-94 -15 c-1 -8 -5 -17 -8 -21 -5 -4 -4 16
1 34 3 9 9 -1 7 -13z m40 -11 c1 -9 0 -13 -4 -10 -3 4 -7 14 -8 22 -1 9 0 13
4 10 3 -4 7 -14 8 -22z m89 -42 c-3 -3 -11 0 -18 7 -9 10 -8 11 6 5 10 -3 15
-9 12 -12z m1058 -4 c4 -19 3 -297 -2 -561 -1 -27 -5 -46 -10 -43 -11 7 -12
626 -1 626 4 0 10 -10 13 -22z m-43 -450 c0 -254 -2 -459 -4 -457 -3 3 -6 203
-6 444 -1 505 -1 475 5 475 2 0 5 -208 5 -462z m-31 -150 c0 -479 -3 -595 -12
-565 -7 22 -15 35 -19 31 -4 -4 -7 17 -6 47 0 30 -1 82 -4 117 -3 34 -1 65 4
68 5 3 6 29 3 57 -11 87 -9 151 5 177 9 17 10 25 1 28 -15 5 -15 172 0 172 8
0 8 5 -1 15 -9 11 -11 32 -6 71 3 30 3 53 -2 50 -4 -2 -8 17 -8 44 0 27 4 46
8 44 4 -3 8 5 8 18 0 18 -2 20 -10 8 -6 -9 -10 -10 -10 -3 0 6 4 14 8 17 7 4
10 23 16 111 1 17 -1 42 -5 57 -8 28 -3 38 17 38 11 0 13 -114 13 -602z
m-1302 576 c-3 -4 -21 -8 -39 -10 -18 -2 -28 0 -21 4 15 9 69 15 60 6z m1185
-131 c-4 -176 -9 -186 -11 -25 0 78 2 142 7 142 4 0 6 -53 4 -117z m-1237 97
c3 -5 1 -10 -4 -10 -6 0 -11 5 -11 10 0 6 2 10 4 10 3 0 8 -4 11 -10z m-39
-73 c-2 -19 -7 -40 -11 -48 -7 -11 -6 -12 6 -2 13 10 16 10 16 -1 0 -8 -8 -17
-17 -19 -12 -3 -17 2 -16 17 1 11 6 24 11 28 6 5 5 8 -3 8 -19 0 -6 48 14 50
1 0 1 -15 0 -33z m40 6 c-10 -11 -19 -7 -22 10 -2 15 0 16 12 6 8 -6 12 -14
10 -16z m-99 -150 c-2 -32 -3 -8 -3 52 0 61 1 87 3 58 2 -29 2 -78 0 -110z
m1260 85 c-3 -8 -6 -5 -6 6 -1 11 2 17 5 13 3 -3 4 -12 1 -19z m-297 -8 c0 -5
-2 -10 -4 -10 -3 0 -8 5 -11 10 -3 6 -1 10 4 10 6 0 11 -4 11 -10z m-40 -90
c5 0 10 8 12 18 2 9 4 -10 3 -42 0 -49 -4 -60 -20 -66 -17 -6 -15 -8 10 -14
22 -6 26 -9 14 -17 -12 -7 -12 -9 1 -10 8 0 2 -6 -14 -13 -16 -8 -24 -16 -18
-20 6 -3 13 -2 17 4 3 5 11 10 16 10 6 0 7 -5 3 -12 -5 -8 -2 -9 9 -5 9 3 19
2 22 -4 4 -5 1 -8 -6 -7 -7 2 -15 -5 -17 -14 -3 -14 4 -18 30 -19 18 -1 37 -1
41 0 5 1 6 -3 3 -7 -3 -5 -18 -7 -32 -4 -21 4 -25 2 -19 -9 6 -10 2 -9 -11 2
-10 9 -24 15 -30 12 -6 -2 -16 7 -22 19 l-12 23 6 -24 c7 -26 -8 -41 -35 -34
-12 3 -18 14 -18 34 0 21 3 26 12 19 9 -7 14 -7 18 2 3 9 -8 13 -37 14 -37 0
-41 -2 -42 -25 -2 -26 -2 -26 9 -3 12 26 22 28 31 7 10 -26 -4 -45 -30 -41
-16 3 -24 0 -24 -10 0 -8 4 -14 9 -14 5 0 7 -19 5 -42 -3 -24 -5 -52 -5 -63 0
-18 -1 -19 -10 -2 -6 9 -7 22 -4 27 3 6 0 10 -7 11 -11 0 -11 2 0 6 10 4 9 9
-5 19 -16 12 -16 15 -3 27 9 6 14 20 12 30 -4 20 -18 23 -25 5 -3 -7 -6 -3 -6
10 -1 12 3 22 7 22 4 0 8 15 8 33 0 45 13 89 23 82 5 -3 11 1 14 7 3 10 11 11
37 1 37 -14 51 -10 49 15 -1 15 -2 15 -6 0 -2 -10 -9 -18 -14 -18 -22 0 -19
31 8 71 20 30 29 38 31 26 2 -9 7 -17 12 -17z m-1703 -26 c-3 -3 -12 -4 -19
-1 -8 3 -5 6 6 6 11 1 17 -2 13 -5z m780 -106 c-2 -18 -4 -6 -4 27 0 33 2 48
4 33 2 -15 2 -42 0 -60z m1119 37 c-1 -8 -6 -18 -11 -22 -4 -4 -5 -2 -1 5 4 7
2 12 -6 12 -9 0 -9 3 2 10 19 12 19 13 16 -5z m68 7 c2 -4 -5 -9 -17 -9 -17
-2 -19 0 -7 7 18 12 18 12 24 2z m-1940 -18 c3 -8 2 -12 -4 -9 -6 3 -10 10
-10 16 0 14 7 11 14 -7z m1826 -60 c0 -8 -19 -13 -24 -6 -3 5 1 9 9 9 8 0 15
-2 15 -3z m26 -12 c0 -10 -6 -19 -13 -19 -16 0 -17 9 -1 25 15 15 14 15 14 -6z
m231 -19 c-3 -10 -5 -4 -5 12 0 17 2 24 5 18 2 -7 2 -21 0 -30z m-2397 12 c11
-13 10 -14 -4 -9 -9 3 -16 2 -16 -4 0 -5 -7 -13 -15 -16 -13 -5 -12 -1 2 19
22 29 18 28 33 10z m853 -22 c3 -5 -15 -9 -39 -9 -24 -1 -44 2 -44 7 0 11 77
12 83 2z m1287 -13 c0 -5 -2 -10 -4 -10 -3 0 -8 5 -11 10 -3 6 -1 10 4 10 6 0
11 -4 11 -10z m-1319 -14 c-15 -8 -20 -16 -12 -20 6 -4 9 -17 6 -29 -3 -12 -7
-40 -9 -62 -5 -56 -5 -55 -14 -55 -4 0 -8 37 -7 83 0 73 2 83 20 89 34 10 41
8 16 -6z m1583 -2 c3 -8 2 -12 -4 -9 -6 3 -10 10 -10 16 0 14 7 11 14 -7z
m-377 -8 c-2 -6 -18 -12 -36 -14 -39 -4 -36 -24 5 -33 16 -4 21 -7 12 -8 -11
-1 -18 -10 -19 -23 0 -13 -3 -17 -6 -10 -7 18 -23 15 -24 -5 0 -12 -4 -8 -11
10 -5 15 -14 24 -20 21 -6 -4 -8 2 -4 17 7 23 6 23 -5 4 -7 -11 -17 -23 -23
-27 -6 -4 -7 -10 -3 -15 5 -4 12 -1 17 7 8 12 10 10 10 -7 0 -13 -6 -23 -14
-23 -8 0 -17 -8 -20 -17 -2 -10 -3 11 -1 47 2 36 4 66 4 68 1 1 14 0 29 -3 16
-2 36 1 46 8 22 16 68 19 63 3z m-960 -28 c-3 -7 -5 -2 -5 12 0 14 2 19 5 13
2 -7 2 -19 0 -25z m55 -30 c2 -20 0 -34 -4 -32 -4 3 -7 26 -7 52 1 49 5 42 11
-20z m1122 50 c-3 -4 -11 -5 -19 -1 -21 7 -19 12 4 10 11 0 18 -5 15 -9z
m-1747 -4 c-3 -3 -12 -4 -19 -1 -8 3 -5 6 6 6 11 1 17 -2 13 -5z m1288 -26
c-1 -13 3 -29 9 -37 9 -12 8 -12 -12 -2 -17 9 -22 9 -20 0 2 -6 -2 -13 -8 -16
-6 -2 -14 7 -16 21 -3 17 -1 23 8 19 7 -2 15 5 19 16 9 28 22 27 20 -1z
m-1358 -19 c-12 -7 -16 -17 -12 -32 5 -18 4 -19 -5 -5 -13 21 -3 48 19 48 14
-1 14 -2 -2 -11z m113 -33 c0 -8 -4 -18 -10 -21 -5 -3 -10 -4 -10 -1 0 2 -3
11 -6 20 -4 11 -1 16 10 16 9 0 16 -6 16 -14z m1310 -41 c0 -14 -4 -25 -10
-25 -5 0 -10 11 -10 25 0 14 5 25 10 25 6 0 10 -11 10 -25z m-110 -21 c0 -19
-4 -33 -9 -30 -5 4 -8 14 -6 24 2 9 4 23 4 30 2 28 11 9 11 -24z m191 12 c5 3
7 11 3 17 -3 7 2 3 10 -7 9 -11 16 -14 16 -8 0 19 20 14 20 -5 1 -16 2 -16 15
1 15 19 15 19 15 -2 0 -21 35 -45 52 -36 13 8 69 -72 84 -121 8 -27 18 -83 21
-122 5 -65 3 -73 -13 -79 -30 -9 -49 -21 -47 -31 1 -4 -13 -8 -30 -9 -18 0
-73 -3 -124 -5 -60 -3 -89 -1 -86 6 3 5 0 5 -6 -1 -15 -14 -53 -6 -48 10 2 7
34 11 90 10 110 -2 118 19 12 32 -22 3 -50 7 -62 9 -14 3 -25 -1 -31 -12 -7
-12 -8 -3 -5 30 3 25 0 68 -7 94 -19 76 -20 83 -8 83 7 0 3 6 -8 14 -10 8 -16
18 -11 22 4 4 7 2 7 -4 0 -7 5 -12 11 -12 5 0 7 5 4 11 -10 16 4 61 18 56 15
-5 37 17 37 37 0 9 7 13 20 11 13 -2 21 3 26 18 7 19 8 19 12 4 2 -9 8 -15 13
-11z m-2086 -11 c12 -4 13 -9 0 -44 -7 -21 -11 -42 -8 -45 4 -3 1 -6 -5 -6 -7
0 -7 -11 0 -36 5 -20 7 -42 4 -50 -3 -8 -3 -27 0 -43 l6 -29 21 21 c15 15 22
17 25 8 6 -18 -18 -38 -56 -46 -35 -7 -38 -4 -46 50 -2 17 -5 32 -6 35 -3 8
-7 23 -8 38 -1 6 -9 12 -17 12 -14 0 -13 4 2 33 9 17 16 35 15 39 -1 4 5 23
13 42 10 23 20 34 30 31 8 -3 22 -7 30 -10z m-91 -40 c5 -24 2 -42 -7 -55 -14
-20 -15 -19 -24 17 -5 21 -7 46 -5 56 6 30 29 19 36 -18z m1266 15 c0 -11 -4
-20 -10 -20 -5 0 -10 9 -10 20 0 11 5 20 10 20 6 0 10 -9 10 -20z m1574 -30
c-1 -66 -14 -78 -14 -13 0 40 5 63 14 63 1 0 1 -23 0 -50z m-1791 33 c-7 -2
-19 -2 -25 0 -7 3 -2 5 12 5 14 0 19 -2 13 -5z m-3 -23 c0 -5 -4 -10 -9 -10
-6 0 -13 5 -16 10 -3 6 1 10 9 10 9 0 16 -4 16 -10z m847 -65 c28 -41 25 -59
-4 -22 -10 13 -28 29 -41 36 -12 6 -22 21 -22 32 0 18 2 19 21 5 12 -8 32 -31
46 -51z m-850 39 c-3 -3 -12 -4 -19 -1 -8 3 -5 6 6 6 11 1 17 -2 13 -5z m-77
-19 c7 -8 17 -12 23 -8 6 4 8 0 5 -9 -8 -20 22 -20 45 0 11 10 17 11 17 4 0
-7 -6 -12 -12 -12 -9 0 -8 -4 2 -10 13 -8 12 -10 -3 -10 -10 0 -16 -4 -13 -8
2 -4 -6 -9 -20 -10 -18 -1 -27 5 -35 25 -9 24 -10 25 -23 8 -9 -13 -15 -15
-20 -6 -4 6 -3 18 3 25 6 7 8 16 4 19 -3 4 -2 7 4 7 6 0 16 -7 23 -15z m293
-111 c-2 -65 -5 -120 -8 -122 -2 -3 -4 52 -2 121 1 69 5 124 8 122 3 -2 4 -57
2 -121z m461 40 c3 -8 2 -12 -4 -9 -6 3 -10 10 -10 16 0 14 7 11 14 -7z m-739
-12 c-3 -3 -11 0 -18 7 -9 10 -8 11 6 5 10 -3 15 -9 12 -12z m829 -30 c3 -5
-8 -6 -25 -4 -16 2 -29 6 -29 8 0 8 49 4 54 -4z m-1834 -28 c0 -9 -5 -14 -12
-12 -18 6 -21 28 -4 28 9 0 16 -7 16 -16z m1813 9 c-18 -7 -16 -20 2 -20 8 0
15 4 15 9 0 4 4 8 8 8 5 0 9 -28 9 -62 0 -35 -2 -48 -4 -30 -4 32 -33 47 -33
17 0 -13 -4 -14 -20 -5 -21 11 -28 60 -9 60 6 0 9 7 5 15 -4 11 1 15 17 14 12
0 16 -3 10 -6z m1004 -45 c-3 -7 -5 -2 -5 12 0 14 2 19 5 13 2 -7 2 -19 0 -25z
m-2327 1 c0 -4 7 -6 15 -3 19 8 19 -6 -2 -31 -14 -18 -15 -18 -9 -1 5 13 2 17
-9 12 -8 -3 -14 -2 -14 2 3 21 -2 32 -13 26 -7 -4 -8 -3 -4 4 7 12 36 5 36 -9z
m992 -70 c-11 -44 18 -122 60 -162 16 -16 28 -31 25 -33 -3 -3 -12 2 -21 11
-9 9 -22 13 -28 9 -7 -4 -10 -3 -5 1 4 5 1 15 -7 24 -37 42 -50 128 -30 198 7
25 8 26 11 7 2 -12 0 -37 -5 -55z m1375 39 c-3 -7 -5 -2 -5 12 0 14 2 19 5 13
2 -7 2 -19 0 -25z m-40 -50 c-2 -13 -4 -5 -4 17 -1 22 1 32 4 23 2 -10 2 -28
0 -40z m-2336 25 c13 -16 12 -17 -3 -4 -10 7 -18 15 -18 17 0 8 8 3 21 -13z
m2122 2 c-3 -9 -8 -14 -10 -11 -3 3 -2 9 2 15 9 16 15 13 8 -4z m254 -147 c-2
-29 -3 -6 -3 52 0 58 1 81 3 53 2 -29 2 -77 0 -105z m-2517 51 c4 -88 2 -99
-16 -99 -8 0 -12 5 -9 10 3 6 2 10 -2 10 -10 0 -17 145 -8 160 14 23 33 -19
35 -81z m1091 68 c-10 -9 -11 -8 -5 6 3 10 9 15 12 12 3 -3 0 -11 -7 -18z
m-611 -13 c0 -9 -5 -14 -12 -12 -18 6 -21 28 -4 28 9 0 16 -7 16 -16z m34 1
c-4 -8 -8 -15 -10 -15 -2 0 -4 7 -4 15 0 8 4 15 10 15 5 0 7 -7 4 -15z m970
-47 c-26 -52 -82 -125 -96 -125 -7 0 -21 -4 -30 -8 -11 -4 -18 -3 -18 3 0 6
10 14 23 18 33 10 104 89 118 132 7 20 14 32 16 25 2 -6 -3 -27 -13 -45z m621
32 c-3 -5 -11 -10 -16 -10 -6 0 -7 5 -4 10 3 6 11 10 16 10 6 0 7 -4 4 -10z
m-1798 -22 c-3 -8 -6 -5 -6 6 -1 11 2 17 5 13 3 -3 4 -12 1 -19z m2170 -40
c-3 -8 -6 -5 -6 6 -1 11 2 17 5 13 3 -3 4 -12 1 -19z m-1197 -198 c0 -5 -5
-10 -11 -10 -5 0 -7 5 -4 10 3 6 8 10 11 10 2 0 4 -4 4 -10z m-645 -110 c3
-11 11 -20 16 -20 5 0 9 -7 9 -15 0 -8 4 -15 10 -15 17 0 56 -105 41 -114 -4
-3 -6 -25 -6 -50 l1 -45 -20 23 c-39 43 -66 105 -75 168 -8 63 -6 88 9 88 5 0
12 -9 15 -20z m604 -27 c0 -31 -2 -34 -9 -18 -12 28 -12 55 0 55 6 0 10 -17 9
-37z m610 -35 c7 -23 19 -51 27 -63 8 -12 11 -24 8 -28 -4 -3 -3 -14 1 -24 14
-33 16 -57 18 -185 1 -69 5 -130 9 -134 4 -4 3 -13 -3 -20 -7 -8 -7 -14 1 -19
6 -3 8 -11 5 -16 -4 -5 -2 -9 3 -9 9 0 8 -19 -4 -74 -5 -19 -2 -31 7 -37 8 -5
9 -9 3 -9 -7 0 -15 -16 -18 -35 -8 -41 -36 -49 -36 -11 0 14 -4 27 -8 30 -5 3
-9 69 -9 148 -1 179 -11 375 -24 453 -11 74 -11 75 -1 75 5 0 14 -19 21 -42z
m-1793 -155 c-10 -10 -19 5 -10 18 6 11 8 11 12 0 2 -7 1 -15 -2 -18z m1169
-92 c3 -5 1 -12 -5 -16 -5 -3 -10 1 -10 9 0 18 6 21 15 7z m-400 -671 c4 -7
-3 -8 -22 -4 -38 9 -42 14 -10 14 14 0 29 -5 32 -10z m1229 -48 c3 -5 -1 -9
-9 -9 -8 0 -12 4 -9 9 3 4 7 8 9 8 2 0 6 -4 9 -8z m123 -17 c0 -8 -4 -12 -9
-9 -5 3 -6 10 -3 15 9 13 12 11 12 -6z m-107 -9 c0 -2 -8 -10 -17 -17 -16 -13
-17 -12 -4 4 13 16 21 21 21 13z m30 0 c0 -2 -8 -10 -17 -17 -16 -13 -17 -12
-4 4 13 16 21 21 21 13z m-1473 -188 c-3 -8 -6 -5 -6 6 -1 11 2 17 5 13 3 -3
4 -12 1 -19z m-59 -33 c-3 -3 -9 2 -12 12 -6 14 -5 15 5 6 7 -7 10 -15 7 -18z"/>
<path d="M3610 3349 c0 -5 5 -7 10 -4 6 3 10 8 10 11 0 2 -4 4 -10 4 -5 0 -10
-5 -10 -11z"/>
<path d="M4100 2951 c0 -6 5 -13 10 -16 6 -3 10 1 10 9 0 9 -4 16 -10 16 -5 0
-10 -4 -10 -9z"/>
<path d="M4116 2895 c4 -8 10 -12 15 -9 14 8 10 24 -6 24 -9 0 -12 -6 -9 -15z"/>
<path d="M4083 2853 c17 -4 17 -6 3 -16 -14 -10 -10 -12 21 -14 32 -1 34 0 13
7 l-25 8 25 2 25 2 -25 8 c-14 4 -32 8 -40 8 -9 0 -8 -2 3 -5z"/>
<path d="M4090 2546 c0 -2 7 -7 16 -10 8 -3 12 -2 9 4 -6 10 -25 14 -25 6z"/>
<path d="M4200 2503 c1 -18 30 -47 39 -37 6 5 0 16 -15 27 -13 10 -24 14 -24
10z"/>
<path d="M4242 2369 c-2 -22 1 -28 10 -23 10 6 9 3 0 -9 -12 -14 -12 -19 2
-32 9 -9 16 -13 17 -8 6 57 3 80 -10 75 -9 -3 -12 -1 -7 6 3 6 3 13 -2 16 -4
2 -9 -9 -10 -25z"/>
<path d="M4173 2213 c9 -2 23 -2 30 0 6 3 -1 5 -18 5 -16 0 -22 -2 -12 -5z"/>
<path d="M3692 2311 c-11 -7 -11 -9 2 -14 10 -4 16 -1 16 8 0 17 -1 17 -18 6z"/>
<path d="M4664 3662 c3 -6 -3 -17 -14 -25 -20 -14 -19 -14 7 -26 23 -11 25
-10 13 3 -9 12 -10 19 -1 30 9 11 9 16 0 22 -7 4 -9 3 -5 -4z"/>
<path d="M836 3570 c6 -22 5 -23 -10 -11 -9 7 -16 9 -16 3 0 -5 6 -15 14 -21
18 -15 30 14 16 37 -9 14 -10 12 -4 -8z"/>
<path d="M1359 3473 c-1 -16 -3 -48 -4 -73 -2 -25 -5 -222 -8 -439 -6 -423 -3
-461 41 -461 11 0 25 -7 32 -15 7 -8 16 -12 21 -9 5 3 9 1 9 -4 0 -19 34 -23
46 -7 11 15 13 15 17 -2 4 -16 5 -16 6 0 0 9 6 17 12 17 7 0 9 15 4 43 -5 32
-4 38 5 27 9 -12 10 -9 8 15 -2 17 2 31 7 33 6 1 12 -15 14 -35 3 -35 4 -36
11 -13 8 25 8 25 9 2 1 -15 5 -21 12 -16 14 8 6 -116 -9 -143 -6 -11 -6 -25 0
-39 16 -35 37 -38 50 -6 13 31 17 162 6 207 -17 71 -27 102 -42 131 -17 33
-19 134 -4 145 5 3 11 41 13 85 2 53 1 72 -5 57 -5 -13 -14 -23 -20 -23 -5 0
-10 -15 -10 -32 0 -25 -3 -29 -10 -18 -7 11 -10 3 -10 -30 0 -42 -1 -43 -17
-27 -16 16 -16 19 -3 27 13 8 16 56 20 296 3 157 2 291 -2 297 -4 6 -2 15 5
19 8 5 5 8 -8 8 -14 0 -21 -7 -21 -19 0 -11 3 -18 6 -16 3 2 3 -26 2 -61 -5
-95 -22 -78 -22 22 0 74 -2 85 -17 82 -21 -4 -21 2 -28 -333 -6 -255 -9 -317
-14 -347 0 -5 -4 -8 -8 -8 -12 0 -10 414 2 422 7 5 6 8 -1 8 -13 0 -14 31 -1
48 6 8 6 12 -2 12 -6 0 -11 5 -11 11 0 5 6 7 13 3 9 -6 9 -4 1 7 -15 18 -16
159 -2 159 21 0 3 9 -29 14 l-31 6 -1 -292 c-1 -161 -4 -294 -6 -297 -3 -2 -5
129 -5 292 0 191 -4 297 -10 297 -5 0 -11 -12 -11 -27z m173 -310 c-4 -255 -8
-279 -10 -70 -1 114 1 207 6 207 4 0 6 -62 4 -137z m-105 95 c-3 -7 -5 -2 -5
12 0 14 2 19 5 13 2 -7 2 -19 0 -25z m109 -453 c-3 -13 -2 -43 3 -65 5 -23 5
-42 0 -46 -5 -3 -10 -2 -10 3 -1 4 -3 19 -6 33 -5 35 -4 65 6 98 1 1 4 2 7 2
3 0 3 -11 0 -25z m52 -151 c3 -28 3 -28 -12 -9 -19 24 -21 48 -3 43 6 -3 13
-18 15 -34z"/>
<path d="M1928 3483 c7 -3 16 -2 19 1 4 3 -2 6 -13 5 -11 0 -14 -3 -6 -6z"/>
<path d="M2405 3465 c0 -14 3 -25 8 -25 4 0 7 11 7 25 0 14 -3 25 -7 25 -5 0
-8 -11 -8 -25z"/>
<path d="M2434 3457 c1 -24 -2 -36 -9 -33 -6 2 -11 -4 -11 -14 0 -10 4 -16 8
-14 5 3 15 -2 24 -10 9 -9 21 -13 27 -9 7 3 9 2 4 -2 -9 -11 -48 -14 -41 -4 2
4 -5 7 -16 6 -20 -1 -20 -2 2 -19 20 -14 21 -18 7 -23 -14 -5 -15 -11 -6 -35
6 -16 14 -27 18 -24 4 2 11 -1 15 -7 5 -9 -2 -10 -24 -6 -30 6 -31 6 -20 -18
6 -14 15 -25 20 -25 13 0 10 18 -4 23 -8 4 -7 6 4 6 9 1 25 4 35 7 15 6 16 4
6 -7 -15 -16 -17 -33 -3 -24 6 3 7 -1 4 -9 -3 -9 -10 -14 -14 -11 -19 12 -37
-8 -38 -41 -1 -19 -4 -39 -7 -44 -3 -5 0 -12 6 -16 6 -4 9 -19 5 -36 -6 -29
17 -68 31 -54 4 4 12 -3 19 -15 11 -22 11 -22 18 5 3 14 13 26 21 26 8 0 23 9
32 20 10 11 24 20 31 20 8 0 12 6 9 13 -2 6 -11 12 -19 11 -8 -1 -15 5 -15 12
0 8 4 14 8 14 16 0 59 -23 59 -32 0 -4 15 -8 33 -8 l32 1 -43 21 c-30 14 -39
23 -31 29 19 11 -32 29 -61 22 -16 -4 -21 -3 -16 5 5 8 -2 12 -21 13 -28 1
-28 1 -3 8 16 4 21 9 13 14 -9 6 -9 15 -2 34 5 14 7 35 4 47 -6 20 -5 19 13
-3 10 -13 25 -21 33 -18 10 4 9 6 -3 6 -27 1 -21 18 8 25 34 9 73 -2 53 -15
-12 -7 -11 -9 1 -10 10 0 9 -3 -5 -10 l-20 -9 20 3 c34 4 25 40 -13 53 -18 5
-30 13 -26 17 8 8 40 -8 77 -39 20 -17 24 -24 13 -24 -9 0 -16 -4 -16 -10 0
-5 -12 -11 -27 -11 -24 -2 -25 -2 -6 -6 17 -3 22 -10 19 -26 -2 -14 -9 -21
-20 -19 -9 2 -16 -2 -16 -7 0 -15 36 -32 54 -25 23 9 68 -4 60 -17 -4 -8 -10
-7 -17 0 -15 15 -30 14 -21 0 5 -9 -1 -10 -20 -5 -16 4 -26 2 -26 -5 0 -6 18
-10 48 -8 60 3 74 8 68 25 -3 7 0 15 7 17 7 2 8 8 4 13 -5 5 -13 1 -18 -8 -10
-17 -39 -14 -39 4 0 5 5 6 10 3 6 -3 10 -1 10 5 0 8 -11 9 -32 5 -18 -3 -28
-3 -23 2 15 12 18 43 4 43 -7 0 -10 3 -6 6 3 3 15 3 27 -1 17 -5 19 -10 9 -21
-9 -11 -8 -14 5 -14 9 0 17 1 19 2 1 1 12 -4 24 -11 24 -13 26 -38 4 -65 -7
-9 -11 -23 -7 -32 3 -8 1 -24 -4 -35 -7 -13 -7 -19 0 -19 5 0 10 5 10 11 0 8
4 8 14 0 11 -10 13 -4 11 36 -4 51 1 67 17 57 6 -4 5 -10 -3 -15 -11 -7 -10
-9 4 -9 23 0 22 15 -3 40 -12 12 -18 26 -14 32 4 7 3 8 -5 4 -17 -11 -24 20
-12 55 9 26 8 30 -4 25 -18 -7 -19 5 -2 23 10 11 10 13 0 7 -15 -8 -18 10 -3
19 6 3 10 12 10 18 0 7 -4 6 -11 -3 -9 -13 -10 -13 -6 0 4 16 47 23 47 8 0 -5
5 -6 10 -3 18 11 11 27 -10 22 -11 -3 -23 -1 -26 4 -3 5 -9 7 -14 4 -4 -3 -6
5 -4 17 5 23 5 23 -6 0 -5 -13 -14 -20 -20 -17 -15 10 -12 35 5 35 8 0 15 6
15 13 0 9 3 8 9 -2 7 -11 9 -11 14 0 4 8 4 1 2 -16 -3 -16 -2 -24 1 -17 4 9 9
10 19 2 10 -8 15 -8 20 1 4 6 1 15 -6 20 -12 8 -11 11 2 19 22 13 14 61 -9 53
-9 -4 -13 -2 -9 3 4 7 -22 10 -69 9 -41 -1 -74 -5 -74 -8 0 -4 0 -11 0 -16 0
-12 30 -22 43 -14 7 4 3 9 -9 14 -17 7 -17 8 4 8 13 1 22 -5 22 -14 0 -8 -4
-15 -8 -15 -4 0 -8 -9 -9 -20 -1 -12 3 -18 9 -14 7 4 7 0 0 -13 -7 -12 -7 -25
-1 -34 7 -11 9 -11 9 0 0 10 3 11 13 2 12 -9 13 -20 8 -63 -1 -8 -44 -23 -51
-17 -3 2 -4 8 -2 12 1 4 -4 18 -13 30 -10 14 -15 17 -15 7 0 -12 -2 -12 -9 -2
-4 7 -21 16 -37 21 -16 4 -29 14 -29 22 0 8 -4 20 -8 27 -10 16 0 32 20 32 11
0 14 -6 10 -22 -8 -29 11 -52 29 -37 8 6 14 8 14 3 0 -4 7 1 16 12 15 18 15
18 10 0 -6 -16 -4 -17 9 -6 11 9 12 15 5 20 -6 4 -10 13 -8 21 2 8 -3 13 -10
11 -8 -1 -16 7 -19 18 -6 22 -48 29 -55 8 -3 -7 -24 -12 -50 -13 -48 -1 -82
-20 -74 -41 3 -8 0 -11 -10 -7 -17 6 -18 13 -1 27 9 7 11 21 6 41 l-7 30 -2
-35 -3 -35 -8 35 -8 35 3 -38z m369 -1 c8 5 8 3 0 -6 -19 -20 -41 -21 -38 -1
2 9 4 21 5 26 0 6 5 2 11 -8 6 -9 16 -14 22 -11z m-55 -21 c-3 -3 -9 2 -12 12
-6 14 -5 15 5 6 7 -7 10 -15 7 -18z m-191 -1 c-3 -3 -12 -4 -19 -1 -8 3 -5 6
6 6 11 1 17 -2 13 -5z m102 -27 c-8 -13 -14 -16 -21 -9 -13 13 -4 29 16 29 12
0 13 -5 5 -20z m-64 -68 c17 -8 15 -8 -7 -4 -22 4 -26 2 -22 -10 4 -8 2 -15
-4 -15 -5 0 -12 9 -15 20 -6 22 13 26 48 9z m-22 -46 c-7 -2 -19 -2 -25 0 -7
3 -2 5 12 5 14 0 19 -2 13 -5z m157 -17 c0 -3 -4 -8 -10 -11 -5 -3 -10 -1 -10
4 0 6 5 11 10 11 6 0 10 -2 10 -4z m-155 -136 c3 -5 1 -10 -4 -10 -6 0 -11 5
-11 10 0 6 2 10 4 10 3 0 8 -4 11 -10z m205 -44 c0 -3 -4 -8 -10 -11 -5 -3
-10 -1 -10 4 0 6 5 11 10 11 6 0 10 -2 10 -4z"/>
<path d="M2915 3470 c-17 -7 -16 -9 10 -10 24 -1 26 -3 11 -9 -14 -5 -19 -18
-20 -51 0 -24 4 -45 9 -47 6 -2 9 15 7 42 -3 28 0 45 7 45 6 0 11 -5 11 -10 0
-6 6 -5 14 2 10 9 11 15 2 20 -8 6 -7 8 2 8 7 0 10 5 7 10 -7 12 -32 12 -60 0z"/>
<path d="M3806 3472 c-6 -12 -8 -181 -1 -192 5 -8 45 3 65 18 7 5 16 172 10
173 -19 6 -71 6 -74 1z"/>
<path d="M3915 3406 c0 -41 3 -78 8 -82 4 -4 7 29 7 74 0 45 -3 82 -8 82 -4 0
-7 -33 -7 -74z"/>
<path d="M2471 3454 c0 -11 3 -14 6 -6 3 7 2 16 -1 19 -3 4 -6 -2 -5 -13z"/>
<path d="M2513 3463 c9 -2 25 -2 35 0 9 3 1 5 -18 5 -19 0 -27 -2 -17 -5z"/>
<path d="M3670 3450 c0 -6 7 -10 15 -10 8 0 15 2 15 4 0 2 -7 6 -15 10 -8 3
-15 1 -15 -4z"/>
<path d="M2980 3428 c-13 -159 -17 -314 -8 -336 8 -22 8 -25 14 176 2 89 2
162 -1 162 -3 0 -5 -1 -5 -2z"/>
<path d="M1927 3385 c2 -22 5 -53 6 -69 1 -16 9 -31 17 -33 13 -4 13 -3 0 6
-12 8 -13 14 -3 30 10 15 9 22 -2 31 -8 6 -11 18 -9 25 3 8 1 22 -4 32 -8 13
-9 8 -5 -22z"/>
<path d="M1068 3370 c-7 -24 -3 -38 8 -28 3 4 4 17 2 30 l-3 23 -7 -25z"/>
<path d="M2016 3347 c3 -10 9 -15 12 -12 3 3 0 11 -7 18 -10 9 -11 8 -5 -6z"/>
<path d="M2016 3307 c3 -10 9 -15 12 -12 3 3 0 11 -7 18 -10 9 -11 8 -5 -6z"/>
<path d="M2925 3300 c-3 -5 -1 -10 4 -10 6 0 11 5 11 10 0 6 -2 10 -4 10 -3 0
-8 -4 -11 -10z"/>
<path d="M1183 3265 c0 -8 4 -12 9 -9 5 3 6 10 3 15 -9 13 -12 11 -12 -6z"/>
<path d="M2004 3272 c4 -3 14 -7 22 -8 9 -1 13 0 10 4 -4 3 -14 7 -22 8 -9 1
-13 0 -10 -4z"/>
<path d="M2940 3265 c-9 -11 -9 -17 3 -29 12 -13 14 -11 13 15 -1 34 0 33 -16
14z"/>
<path d="M1923 3230 c0 -25 2 -35 4 -22 2 12 2 32 0 45 -2 12 -4 2 -4 -23z"/>
<path d="M1185 3231 c-6 -11 13 -26 22 -17 4 3 1 6 -6 6 -7 0 -9 5 -6 10 3 6
4 10 1 10 -3 0 -7 -4 -11 -9z"/>
<path d="M2527 3220 c-3 -11 -1 -20 4 -20 5 0 9 2 9 4 0 2 3 11 6 20 3 9 2 16
-4 16 -5 0 -12 -9 -15 -20z"/>
<path d="M2568 3233 c7 -3 16 -2 19 1 4 3 -2 6 -13 5 -11 0 -14 -3 -6 -6z"/>
<path d="M2783 3225 c-3 -9 -3 -19 1 -22 3 -4 6 1 6 11 0 10 5 14 12 10 7 -4
8 -3 4 4 -10 16 -15 15 -23 -3z"/>
<path d="M1877 3214 c-3 -3 -3 -12 0 -20 3 -8 -1 -14 -11 -14 -20 0 -21 -19
-1 -26 8 -4 15 -12 15 -20 0 -8 5 -14 10 -14 6 0 10 23 10 50 0 46 -7 60 -23
44z"/>
<path d="M2825 3191 c-3 -5 -1 -12 5 -16 5 -3 10 1 10 9 0 18 -6 21 -15 7z"/>
<path d="M1158 3173 c7 -3 16 -2 19 1 4 3 -2 6 -13 5 -11 0 -14 -3 -6 -6z"/>
<path d="M1910 3160 c0 -5 7 -10 16 -10 8 0 12 5 9 10 -3 6 -10 10 -16 10 -5
0 -9 -4 -9 -10z"/>
<path d="M2396 3145 c-3 -8 -1 -15 4 -15 6 0 10 7 10 15 0 8 -2 15 -4 15 -2 0
-6 -7 -10 -15z"/>
<path d="M2915 3150 c-19 -8 -19 -9 2 -9 12 -1 25 4 28 9 7 12 -2 12 -30 0z"/>
<path d="M2010 3140 c-18 -12 -2 -12 25 0 13 6 15 9 5 9 -8 0 -22 -4 -30 -9z"/>
<path d="M2895 3110 c3 -5 14 -10 23 -10 15 0 15 2 2 10 -20 13 -33 13 -25 0z"/>
<path d="M2716 3092 c-3 -5 1 -15 9 -22 16 -14 20 -3 6 19 -5 8 -11 9 -15 3z"/>
<path d="M2910 3080 c0 -5 5 -10 11 -10 5 0 7 5 4 10 -3 6 -8 10 -11 10 -2 0
-4 -4 -4 -10z"/>
<path d="M1895 3070 c3 -5 8 -10 11 -10 2 0 4 5 4 10 0 6 -5 10 -11 10 -5 0
-7 -4 -4 -10z"/>
<path d="M2791 3075 c0 -5 3 -17 7 -26 6 -13 10 -13 32 -2 20 11 21 13 5 11
-11 -2 -25 3 -32 12 -7 8 -12 11 -12 5z"/>
<path d="M1787 3050 c-45 -8 -72 -29 -41 -31 10 -1 34 -2 53 -3 19 -1 39 -9
44 -18 10 -14 13 -13 29 7 19 24 24 40 9 31 -4 -3 -17 1 -27 9 -10 8 -21 14
-24 14 -3 -1 -22 -5 -43 -9z"/>
<path d="M2685 3050 c-3 -5 -1 -10 4 -10 6 0 11 -10 11 -22 l0 -22 16 22 c8
12 12 27 9 32 -8 13 -32 13 -40 0z"/>
<path d="M2836 3027 c3 -10 9 -15 12 -12 3 3 0 11 -7 18 -10 9 -11 8 -5 -6z"/>
<path d="M2724 3011 c-10 -11 -2 -28 13 -28 16 0 43 19 43 30 0 6 -50 4 -56
-2z"/>
<path d="M2836 2973 c-6 -14 -5 -15 5 -6 7 7 10 15 7 18 -3 3 -9 -2 -12 -12z"/>
<path d="M2796 2964 c-9 -8 -20 -13 -25 -10 -5 4 -16 0 -24 -8 -8 -8 -17 -13
-20 -10 -3 3 -3 -4 0 -15 l6 -22 14 21 c8 12 20 19 27 17 6 -3 19 6 29 19 20
27 16 32 -7 8z"/>
<path d="M3648 2961 c10 -6 4 -12 -20 -21 -18 -7 -40 -22 -48 -32 -9 -11 -24
-20 -33 -22 -9 -1 -26 -11 -36 -23 -19 -20 -19 -20 19 -20 50 0 60 -8 60 -46
l0 -32 45 52 c25 29 53 54 63 58 9 3 25 16 35 30 17 24 17 24 -22 45 -40 20
-91 29 -63 11z"/>
<path d="M2850 2935 c0 -9 5 -15 11 -13 6 2 11 8 11 13 0 5 -5 11 -11 13 -6 2
-11 -4 -11 -13z"/>
<path d="M2965 2920 c-3 -5 -1 -10 4 -10 6 0 11 5 11 10 0 6 -2 10 -4 10 -3 0
-8 -4 -11 -10z"/>
<path d="M3335 2829 c2 -27 3 -27 30 -10 11 7 13 10 5 8 -8 -2 -20 3 -26 11
-9 12 -11 11 -9 -9z"/>
<path d="M2638 2833 c7 -3 16 -2 19 1 4 3 -2 6 -13 5 -11 0 -14 -3 -6 -6z"/>
<path d="M2678 2823 c7 -3 16 -2 19 1 4 3 -2 6 -13 5 -11 0 -14 -3 -6 -6z"/>
<path d="M3668 2773 c6 -2 10 -8 7 -13 -3 -4 2 -13 9 -19 10 -8 16 -9 21 -1 3
5 -2 10 -12 10 -14 0 -15 2 -5 9 11 7 10 10 -3 15 -9 3 -20 6 -23 5 -4 0 -1
-3 6 -6z"/>
<path d="M2725 2678 c0 -27 4 -33 23 -34 20 -2 20 -1 2 3 -18 4 -20 10 -15 34
4 16 3 29 -2 29 -5 0 -9 -15 -8 -32z"/>
<path d="M2780 2660 c0 -5 5 -10 11 -10 5 0 7 5 4 10 -3 6 -8 10 -11 10 -2 0
-4 -4 -4 -10z"/>
<path d="M3370 2649 c0 -11 4 -18 10 -14 5 3 7 12 3 20 -7 21 -13 19 -13 -6z"/>
<path d="M3401 2644 c0 -11 3 -14 6 -6 3 7 2 16 -1 19 -3 4 -6 -2 -5 -13z"/>
<path d="M2804 2600 c0 -13 4 -16 10 -10 7 7 7 13 0 20 -6 6 -10 3 -10 -10z"/>
<path d="M3362 2600 c7 -10 14 -18 15 -16 6 6 -9 36 -18 36 -5 0 -4 -9 3 -20z"/>
<path d="M3390 2615 c0 -5 4 -16 9 -24 6 -10 10 -10 16 -1 6 9 9 9 16 -1 4 -7
11 -10 15 -7 3 4 -1 14 -9 22 -12 12 -17 13 -20 3 -4 -9 -8 -8 -16 3 -6 8 -11
11 -11 5z"/>
<path d="M1206 2522 c-3 -5 1 -9 9 -9 8 0 12 4 9 9 -3 4 -7 8 -9 8 -2 0 -6 -4
-9 -8z"/>
<path d="M2830 2521 c0 -5 7 -11 14 -14 10 -4 13 -1 9 9 -6 15 -23 19 -23 5z"/>
<path d="M2764 2471 c4 -5 0 -12 -6 -14 -8 -3 -6 -6 5 -6 9 -1 17 6 17 14 0 8
-5 15 -11 15 -5 0 -8 -4 -5 -9z"/>
<path d="M2750 2430 c0 -5 5 -10 11 -10 5 0 7 5 4 10 -3 6 -8 10 -11 10 -2 0
-4 -4 -4 -10z"/>
<path d="M1187 2423 c-4 -3 -7 -11 -7 -17 0 -6 5 -4 10 4 8 13 10 13 10 -2 0
-9 6 -20 13 -24 6 -4 9 -4 5 1 -4 4 -2 15 4 24 7 9 8 13 4 9 -5 -4 -14 -3 -21
2 -7 5 -15 7 -18 3z"/>
<path d="M1290 2406 c0 -2 7 -7 16 -10 8 -3 12 -2 9 4 -6 10 -25 14 -25 6z"/>
<path d="M2570 2391 c0 -39 -10 -51 -32 -40 -11 6 -22 8 -26 5 -3 -3 1 -6 9
-6 10 -1 9 -4 -4 -11 -9 -5 -22 -7 -27 -4 -6 3 -10 2 -10 -3 0 -18 13 -21 34
-7 25 18 39 19 31 3 -4 -7 3 -2 14 11 12 13 21 31 21 41 0 10 6 21 13 23 7 3
5 6 -5 6 -11 1 -18 -6 -18 -18z"/>
<path d="M2606 2391 c-15 -24 -16 -111 -1 -111 11 0 11 8 3 36 -7 27 -7 39 2
44 7 4 10 16 8 26 -3 15 -5 16 -12 5z"/>
<path d="M2646 2345 c4 -8 7 -15 9 -15 2 0 5 7 9 15 3 9 0 15 -9 15 -9 0 -12
-6 -9 -15z"/>
<path d="M2365 2340 c-3 -5 -1 -10 4 -10 6 0 11 5 11 10 0 6 -2 10 -4 10 -3 0
-8 -4 -11 -10z"/>
<path d="M2680 2335 c0 -9 7 -18 15 -21 8 -4 15 -17 15 -29 0 -29 18 -42 26
-21 8 21 -23 69 -38 60 -8 -5 -9 -2 -5 9 3 10 2 17 -3 17 -6 0 -10 -7 -10 -15z"/>
<path d="M2735 2330 c-3 -5 -1 -10 4 -10 6 0 11 5 11 10 0 6 -2 10 -4 10 -3 0
-8 -4 -11 -10z"/>
<path d="M2454 2303 c3 -4 -1 -15 -11 -25 -15 -17 -5 -27 11 -10 4 4 13 7 19
7 20 0 13 28 -6 31 -11 1 -16 0 -13 -3z"/>
<path d="M2670 2280 c0 -5 5 -10 10 -10 6 0 10 5 10 10 0 6 -4 10 -10 10 -5 0
-10 -4 -10 -10z"/>
<path d="M2546 2210 c8 -43 14 -51 14 -19 0 13 -5 31 -10 39 -7 11 -8 5 -4
-20z"/>
<path d="M1881 2001 c-12 -8 -9 -11 11 -16 19 -5 25 -11 21 -23 -4 -10 -2 -13
5 -8 7 4 12 2 12 -3 0 -6 10 -11 23 -10 12 0 17 3 10 5 -7 3 -9 12 -6 20 3 10
0 15 -8 14 -23 -3 -59 12 -53 21 7 11 3 11 -15 0z"/>
<path d="M1927 1589 c-4 -15 -2 -19 8 -15 8 3 15 0 17 -6 2 -6 8 -9 14 -7 5 2
-1 14 -12 27 l-22 22 -5 -21z"/>
<path d="M1935 1539 c-17 -8 -17 -9 5 -5 23 5 25 2 26 -34 0 -22 -3 -35 -7
-29 -5 8 -8 8 -13 0 -4 -6 -12 -8 -18 -5 -7 5 -9 1 -5 -9 4 -11 1 -17 -8 -17
-18 0 -20 -36 -3 -46 8 -5 6 -11 -6 -20 -12 -8 -14 -14 -5 -19 6 -4 14 -4 18
1 3 5 13 9 21 9 10 0 16 12 18 33 3 27 7 32 28 32 21 0 24 -4 19 -20 -4 -11
-2 -20 4 -20 6 0 11 -5 11 -11 0 -5 -4 -7 -10 -4 -6 3 -7 -1 -4 -10 6 -14 9
-14 27 2 19 18 20 17 9 -3 -12 -22 -7 -34 12 -34 6 0 5 4 -2 9 -10 6 -10 10 3
21 13 11 15 9 11 -11 -3 -13 -5 -28 -5 -33 -1 -4 -8 -5 -17 -2 -8 3 -13 2 -10
-3 14 -22 -27 -19 -50 4 -30 30 -40 31 -56 6 -9 -15 -17 -17 -42 -10 -42 12
-46 11 -46 -6 0 -11 11 -15 38 -15 20 0 44 -5 52 -11 12 -9 11 -10 -7 -6 -15
3 -20 1 -16 -9 2 -7 12 -10 21 -7 14 4 14 3 3 -5 -11 -8 -10 -11 5 -15 16 -4
16 -5 -3 -6 -13 0 -23 -5 -23 -11 0 -5 6 -8 13 -6 6 1 9 1 4 -1 -4 -3 -4 -10
0 -16 4 -7 -1 -6 -10 2 -15 12 -17 11 -17 -3 0 -9 -9 -24 -20 -33 -11 -10 -21
-24 -21 -33 -1 -8 -4 -2 -8 14 -3 16 -13 31 -21 33 -13 4 -13 3 0 -6 12 -9 10
-11 -10 -12 -25 -1 -25 -1 -2 -7 13 -4 23 -11 23 -16 1 -16 -25 -25 -38 -14
-7 6 -22 8 -32 5 -11 -3 -22 0 -25 7 -3 7 -5 7 -5 -1 -1 -7 -6 -13 -11 -13 -6
0 -9 6 -8 13 2 6 -3 11 -11 9 -7 -1 -19 3 -27 9 -8 7 -27 9 -45 5 -16 -3 -28
-2 -25 3 3 5 -1 12 -10 15 -12 5 -15 2 -10 -9 3 -9 2 -13 -3 -10 -5 3 -17 -5
-26 -17 l-17 -23 7 23 c4 13 2 22 -4 22 -6 0 -11 -5 -11 -12 0 -6 -6 -3 -14 8
-8 11 -18 15 -23 10 -4 -5 -2 -11 5 -13 6 -3 12 -8 12 -13 0 -4 -11 -3 -25 3
-14 7 -25 15 -25 20 0 4 -7 7 -16 7 -11 0 -14 -5 -10 -16 3 -9 6 -18 6 -20 0
-2 7 -4 17 -4 15 0 15 -1 0 -18 -12 -14 -14 -21 -6 -29 16 -16 3 -47 -16 -39
-8 3 -15 1 -15 -4 0 -10 14 -14 83 -25 25 -4 37 -3 33 4 -4 5 -1 13 4 16 6 4
16 19 22 33 l11 27 7 -25 c5 -16 8 -19 9 -7 1 9 8 17 16 17 18 0 20 31 3 48
-9 9 -9 12 -1 12 7 0 15 -5 18 -10 4 -6 12 -10 18 -9 7 1 23 1 36 0 21 -1 22
-3 10 -18 -8 -9 -9 -14 -2 -10 17 10 43 -3 44 -22 0 -9 6 -4 13 13 l13 29 23
-23 c23 -23 23 -24 4 -31 -18 -7 -18 -8 2 -8 12 -1 35 -14 52 -31 18 -16 36
-30 42 -30 5 0 10 -4 10 -10 0 -5 18 -14 40 -20 34 -9 70 -33 70 -46 0 -3 -9
0 -20 6 -29 15 -26 -5 5 -32 13 -11 22 -25 19 -29 -3 -5 1 -6 9 -3 11 4 14 -2
12 -20 -2 -15 1 -24 6 -20 5 3 9 -2 9 -10 0 -24 1 -30 11 -48 8 -14 6 -16 -8
-11 -12 4 -9 -1 7 -15 l25 -21 -25 -9 c-26 -10 -39 -4 -44 19 -2 8 -8 27 -14
42 -7 16 -12 36 -12 45 0 23 -84 102 -107 101 -11 0 -13 -3 -5 -6 6 -2 10 -9
6 -14 -3 -5 6 -13 19 -18 16 -6 31 -25 42 -55 10 -25 21 -46 25 -46 16 0 19
-66 6 -105 -26 -75 -76 -50 -84 41 -2 30 -8 57 -13 60 -5 3 -9 15 -9 28 0 27
-8 36 -25 30 -10 -4 -11 -14 -3 -41 7 -25 6 -48 -4 -80 -14 -50 -31 -62 -59
-45 -10 7 -26 12 -34 12 -8 0 -15 5 -15 10 0 6 -5 10 -10 10 -6 0 -6 -7 2 -19
6 -11 18 -17 26 -13 9 3 13 1 9 -5 -8 -12 20 -26 34 -18 5 4 6 0 3 -8 -3 -9 2
-13 18 -12 13 1 26 -3 30 -9 4 -6 43 -11 90 -12 51 -1 83 -5 86 -13 2 -6 13
-11 25 -11 37 0 115 33 120 50 3 12 14 16 37 15 24 -1 34 3 38 17 3 12 13 18
31 18 15 0 37 7 49 16 26 18 30 54 5 55 -14 0 -15 2 -3 6 8 3 18 10 21 16 4 5
15 7 25 2 18 -7 18 -8 -1 -15 -11 -5 -14 -9 -7 -9 6 -1 21 -10 32 -21 12 -12
26 -18 32 -14 7 4 8 3 4 -5 -4 -6 -12 -9 -17 -6 -5 4 -9 1 -9 -5 0 -7 8 -9 22
-5 16 6 20 4 15 -9 -3 -8 -1 -18 5 -22 7 -4 8 -3 4 4 -4 7 -2 12 3 12 6 0 14
0 19 0 4 0 8 -4 8 -10 1 -5 2 -15 3 -20 2 -18 41 14 41 34 0 10 -10 27 -21 37
-15 12 -20 26 -17 43 5 23 -11 30 -28 13 -15 -15 -24 -6 -18 17 4 17 -2 32
-25 57 -17 18 -33 30 -36 27 -8 -8 -65 44 -65 59 0 6 -8 14 -18 17 -10 4 -34
24 -52 46 -18 22 -37 37 -41 34 -9 -5 -21 36 -40 134 -6 35 -17 69 -24 75 -29
30 -83 177 -71 196 4 6 2 9 -6 6 -10 -4 -13 4 -10 35 4 39 3 41 -21 35 -17 -5
-26 -2 -31 10 -3 9 -4 20 -2 24 7 10 -36 11 -59 0z m-385 -485 c0 -8 -4 -12
-10 -9 -5 3 -10 10 -10 16 0 5 5 9 10 9 6 0 10 -7 10 -16z m715 -202 c3 -7 10
-10 16 -6 8 4 7 9 -2 15 -21 14 21 6 47 -9 12 -6 23 -9 26 -7 3 3 20 0 38 -6
27 -10 30 -13 16 -21 -9 -5 -14 -13 -11 -19 4 -5 1 -9 -4 -9 -14 0 -14 13 0
27 9 9 3 11 -23 10 -33 -2 -35 -4 -31 -29 3 -23 1 -28 -17 -28 -12 0 -44 -7
-71 -16 -27 -9 -53 -14 -56 -10 -4 3 1 6 10 6 10 0 17 5 17 10 0 14 -38 12
-43 -2 -2 -7 -8 -9 -13 -5 -5 4 -2 12 5 16 10 7 9 10 -8 16 -18 5 -19 8 -7 21
8 8 30 14 49 14 30 0 34 3 30 20 -6 24 -22 26 -38 3 -11 -15 -13 -15 -23 4
-10 19 -8 20 38 19 31 0 52 -6 55 -14z m-128 -88 c-3 -3 -12 -4 -19 -1 -8 3
-5 6 6 6 11 1 17 -2 13 -5z m106 -49 c-3 -8 0 -15 7 -15 10 0 10 -3 0 -15 -18
-22 -28 -18 -26 10 0 14 5 25 9 25 5 0 5 5 1 12 -4 7 -3 8 4 4 6 -4 9 -13 5
-21z"/>
<path d="M2292 840 c-8 -13 -9 -20 -1 -20 5 0 7 -6 3 -12 -4 -7 1 -6 11 3 12
12 14 22 8 33 -7 14 -10 13 -21 -4z"/>
<path d="M2245 831 c7 -22 -2 -25 -52 -22 -37 3 -35 -17 3 -28 25 -7 42 -7 53
0 12 8 10 8 -9 3 -24 -6 -24 -5 -5 9 10 8 26 13 35 10 9 -3 11 -1 5 4 -5 4
-10 14 -10 22 0 8 -6 16 -14 19 -9 3 -11 -1 -6 -17z"/>
<path d="M1440 1277 c0 -20 10 -38 33 -58 60 -55 65 -59 71 -46 3 9 7 8 14 -2
5 -7 12 -9 15 -5 3 5 -16 22 -43 38 -26 16 -57 45 -69 65 l-21 36 0 -28z"/>
<path d="M1862 1271 c-21 -13 -3 -43 21 -35 20 6 20 6 4 -10 -21 -21 -22 -27
-3 -20 8 3 17 13 21 22 8 20 -25 54 -43 43z"/>
<path d="M1340 1209 c0 -5 5 -7 10 -4 6 3 10 8 10 11 0 2 -4 4 -10 4 -5 0 -10
-5 -10 -11z"/>
<path d="M1268 1193 c7 -3 16 -2 19 1 4 3 -2 6 -13 5 -11 0 -14 -3 -6 -6z"/>
<path d="M1355 1180 c-3 -5 -1 -10 4 -10 6 0 11 5 11 10 0 6 -2 10 -4 10 -3 0
-8 -4 -11 -10z"/>
<path d="M1385 1180 c3 -5 10 -10 16 -10 5 0 9 5 9 10 0 6 -7 10 -16 10 -8 0
-12 -4 -9 -10z"/>
<path d="M1240 1145 c0 -8 2 -15 4 -15 2 0 6 7 10 15 3 8 1 15 -4 15 -6 0 -10
-7 -10 -15z"/>
<path d="M2220 1061 c0 -6 4 -12 8 -15 5 -3 9 1 9 9 0 8 -4 15 -9 15 -4 0 -8
-4 -8 -9z"/>
<path d="M1788 1033 c7 -3 16 -2 19 1 4 3 -2 6 -13 5 -11 0 -14 -3 -6 -6z"/>
<path d="M2470 1020 c0 -5 5 -10 10 -10 6 0 10 5 10 10 0 6 -4 10 -10 10 -5 0
-10 -4 -10 -10z"/>
<path d="M3686 955 c-21 -18 -30 -36 -33 -68 l-5 -45 36 -4 c64 -7 104 2 110
25 11 42 6 77 -14 97 -27 27 -59 25 -94 -5z"/>
<path d="M857 856 c-4 -9 -3 -15 2 -11 5 3 12 1 16 -5 3 -5 -1 -10 -9 -10 -9
0 -16 -7 -16 -15 0 -8 -4 -15 -10 -15 -5 0 -6 -8 -3 -17 6 -16 5 -17 -12 -3
-16 13 -18 13 -13 0 2 -8 18 -17 36 -21 31 -6 55 -25 60 -47 1 -6 -4 -12 -10
-12 -9 0 -8 -4 2 -10 13 -9 13 -10 0 -10 -13 0 -13 -1 0 -10 10 -6 11 -10 3
-10 -7 0 -13 -5 -13 -12 0 -9 3 -9 12 0 14 14 32 16 24 3 -4 -5 9 -8 26 -7 85
7 85 7 38 21 -43 12 -44 13 -20 22 14 6 34 13 45 16 11 3 0 4 -25 2 -25 -2
-53 -6 -62 -10 -13 -5 -15 -2 -11 14 3 12 10 21 15 21 5 0 6 -4 3 -10 -3 -5
-1 -10 4 -10 14 0 14 13 0 27 -12 12 2 25 31 30 8 1 27 5 42 9 16 4 43 0 65
-8 21 -9 44 -13 51 -11 7 3 10 -1 7 -9 -3 -8 -13 -14 -23 -14 -9 -1 -30 -4
-47 -8 -23 -6 -26 -5 -15 3 13 9 12 11 -6 11 -35 0 -84 -12 -84 -21 0 -4 15
-5 34 -2 37 6 58 -12 35 -29 -11 -8 -10 -8 4 -4 10 3 25 6 33 6 8 0 11 6 8 15
-4 10 0 16 12 17 34 2 39 3 52 11 26 17 11 35 -35 42 -48 7 -44 24 7 26 14 0
19 3 11 6 -7 3 -30 0 -51 -7 -29 -9 -49 -10 -79 -2 -23 5 -41 6 -41 2 0 -5 12
-10 28 -12 24 -3 22 -4 -11 -9 -20 -3 -43 -1 -50 4 -8 6 -6 7 6 3 20 -6 22 5
5 22 -13 13 -8 15 42 12 45 -2 36 7 -10 11 -19 2 -38 8 -42 13 -4 6 -10 7 -15
3 -4 -5 -2 -12 6 -16 10 -6 9 -10 -4 -14 -10 -5 -14 -3 -9 5 5 7 3 8 -5 3 -10
-6 -11 -3 -1 15 6 12 18 19 25 16 8 -3 17 -2 19 3 3 4 -8 7 -24 7 -16 0 -27
-3 -24 -8 3 -4 1 -8 -5 -8 -5 0 -11 5 -13 12 -3 7 -7 5 -11 -6z m28 -46 c3 -5
13 -6 22 -3 12 5 14 3 7 -8 -4 -8 -10 -22 -11 -33 -3 -16 -1 -17 12 -6 16 13
20 3 6 -18 -10 -16 -27 2 -33 33 -1 11 -10 25 -18 32 -10 8 -11 12 -3 13 6 0
14 -4 18 -10z m-5 -41 c0 -6 -4 -7 -10 -4 -5 3 -10 11 -10 16 0 6 5 7 10 4 6
-3 10 -11 10 -16z m66 -84 c-18 -13 -17 -14 8 -21 15 -3 25 -9 22 -12 -3 -2
-19 1 -37 8 l-31 13 24 13 c30 17 38 17 14 -1z"/>
<path d="M2570 856 c0 -9 5 -16 10 -16 6 0 10 4 10 9 0 6 -4 13 -10 16 -5 3
-10 -1 -10 -9z"/>
<path d="M958 853 c6 -2 18 -2 25 0 6 3 1 5 -13 5 -14 0 -19 -2 -12 -5z"/>
<path d="M1142 843 c-11 -20 -5 -43 10 -43 7 0 7 4 -1 13 -8 10 -7 17 1 25 6
6 9 14 6 18 -4 3 -11 -3 -16 -13z"/>
<path d="M1020 840 c20 -9 22 -13 10 -20 -10 -7 -4 -8 20 -4 41 8 64 24 33 24
-11 0 -36 2 -54 5 -31 5 -32 5 -9 -5z"/>
<path d="M1118 783 c6 -2 18 -2 25 0 6 3 1 5 -13 5 -14 0 -19 -2 -12 -5z"/>
<path d="M1015 760 c-3 -5 1 -10 9 -10 8 0 18 5 21 10 3 6 -1 10 -9 10 -8 0
-18 -4 -21 -10z"/>
<path d="M3666 754 c16 -13 16 -15 2 -10 -10 3 -18 1 -18 -4 0 -11 23 -13 33
-3 8 8 -12 33 -26 33 -6 0 -2 -7 9 -16z"/>
<path d="M950 741 c0 -4 11 -6 25 -3 14 2 25 6 25 8 0 2 -11 4 -25 4 -14 0
-25 -4 -25 -9z"/>
<path d="M3948 523 c7 -3 16 -2 19 1 4 3 -2 6 -13 5 -11 0 -14 -3 -6 -6z"/>
<path d="M920 496 c0 -9 5 -16 10 -16 6 0 10 4 10 9 0 6 -4 13 -10 16 -5 3
-10 -1 -10 -9z"/>
<path d="M1053 456 c1 -11 9 -21 17 -23 10 -3 11 -2 4 4 -6 4 -14 15 -17 23
-5 11 -6 9 -4 -4z"/>
<path d="M1105 439 c-4 -6 -5 -12 -2 -15 2 -3 7 2 10 11 7 17 1 20 -8 4z"/>
<path d="M890 409 c0 -5 5 -7 10 -4 6 3 10 8 10 11 0 2 -4 4 -10 4 -5 0 -10
-5 -10 -11z"/>
<path d="M694 398 c10 -5 23 -5 34 1 14 8 10 10 -16 9 -26 -1 -30 -3 -18 -10z"/>
<path d="M1058 393 c10 -4 10 -8 0 -21 -12 -15 -11 -16 4 -3 19 14 15 32 -5
30 -8 0 -8 -2 1 -6z"/>
<path d="M1095 392 c3 -3 -1 -12 -8 -21 -10 -14 -10 -14 4 -4 9 7 18 11 21 8
2 -3 5 1 5 8 0 8 -6 14 -14 14 -7 0 -11 -3 -8 -5z"/>
<path d="M536 375 c-3 -9 0 -12 10 -8 8 3 20 1 27 -5 8 -7 21 -6 42 4 23 11
24 13 7 10 -13 -2 -36 -1 -52 4 -21 6 -30 5 -34 -5z"/>
<path d="M675 380 c11 -5 27 -9 35 -9 13 -1 13 0 0 9 -8 5 -24 9 -35 9 l-20 0
20 -9z"/>
<path d="M1018 373 c7 -3 16 -2 19 1 4 3 -2 6 -13 5 -11 0 -14 -3 -6 -6z"/>
<path d="M630 350 c-8 -5 -10 -10 -5 -10 6 0 17 5 25 10 8 5 11 10 5 10 -5 0
-17 -5 -25 -10z"/>
<path d="M1089 343 c-13 -16 -12 -17 4 -4 16 13 21 21 13 21 -2 0 -10 -8 -17
-17z"/>
<path d="M728 343 c17 -2 47 -2 65 0 17 2 3 4 -33 4 -36 0 -50 -2 -32 -4z"/>
<path d="M803 323 c10 -17 -29 -36 -59 -29 -15 4 -24 2 -24 -5 0 -7 16 -10 45
-7 26 2 44 -1 42 -7 -2 -5 -20 -10 -40 -11 -56 -1 -55 -12 1 -15 41 -3 49 -1
44 11 -4 12 -1 12 14 -2 19 -16 19 -16 19 22 0 21 -3 36 -8 33 -4 -2 -15 1
-24 9 -11 8 -14 9 -10 1z m33 -51 c-4 -3 -11 0 -16 8 -15 24 -11 33 6 15 9 -9
13 -19 10 -23z"/>
<path d="M861 263 c-1 -17 16 -25 25 -12 4 7 3 9 -4 5 -5 -3 -13 0 -15 6 -4 9
-6 10 -6 1z"/>
<path d="M746 225 c-3 -8 -1 -15 4 -15 6 0 10 7 10 15 0 8 -2 15 -4 15 -2 0
-6 -7 -10 -15z"/>
<path d="M380 200 c0 -5 5 -10 10 -10 6 0 10 5 10 10 0 6 -4 10 -10 10 -5 0
-10 -4 -10 -10z"/>
<path d="M600 178 c-44 -12 -62 -28 -32 -28 12 0 22 5 22 10 0 6 11 10 25 10
14 0 25 5 25 10 0 6 -1 10 -2 9 -2 0 -19 -5 -38 -11z"/>
<path d="M448 133 c7 -3 16 -2 19 1 4 3 -2 6 -13 5 -11 0 -14 -3 -6 -6z"/>
<path d="M538 133 c7 -3 16 -2 19 1 4 3 -2 6 -13 5 -11 0 -14 -3 -6 -6z"/>
<path d="M488 93 c7 -3 16 -2 19 1 4 3 -2 6 -13 5 -11 0 -14 -3 -6 -6z"/>
<path d="M304 60 c0 -11 4 -20 8 -20 4 0 8 9 8 20 0 11 -4 20 -8 20 -4 0 -8
-9 -8 -20z"/>
<path d="M361 64 c0 -11 3 -14 6 -6 3 7 2 16 -1 19 -3 4 -6 -2 -5 -13z"/>
<path d="M248 43 c6 -2 18 -2 25 0 6 3 1 5 -13 5 -14 0 -19 -2 -12 -5z"/>
<path d="M756 33 c-4 -9 -3 -20 1 -24 4 -4 9 3 9 17 2 28 -1 31 -10 7z"/>
<path d="M1135 40 c-2 -3 9 -6 25 -6 17 0 27 2 25 5 -8 7 -45 9 -50 1z"/>
<path d="M340 15 c0 -8 5 -15 10 -15 6 0 10 7 10 15 0 8 -4 15 -10 15 -5 0
-10 -7 -10 -15z"/>
<path d="M560 20 c0 -5 5 -10 10 -10 6 0 10 5 10 10 0 6 -4 10 -10 10 -5 0
-10 -4 -10 -10z"/>
<path d="M720 21 c0 -6 4 -13 10 -16 6 -3 7 1 4 9 -7 18 -14 21 -14 7z"/>
<path d="M648 3 c6 -2 18 -2 25 0 6 3 1 5 -13 5 -14 0 -19 -2 -12 -5z"/>
</g>
</svg>
